<mxfile host="app.diagrams.net" agent="Mozilla/5.0 (Windows NT 10.0; Win64; x64) AppleWebKit/537.36 (KHTML, like Gecko) Chrome/128.0.0.0 Safari/537.36" version="24.7.16" pages="6">
  <diagram name="Схема 5" id="mvDPxbFov3XMoEYekQOF">
    <mxGraphModel dx="1050" dy="565" grid="1" gridSize="10" guides="1" tooltips="1" connect="1" arrows="1" fold="1" page="1" pageScale="1" pageWidth="1169" pageHeight="827" math="0" shadow="0">
      <root>
        <mxCell id="Kyn-65NMxBrJWZkW65Eq-0" />
        <mxCell id="Kyn-65NMxBrJWZkW65Eq-1" parent="Kyn-65NMxBrJWZkW65Eq-0" />
        <mxCell id="Kyn-65NMxBrJWZkW65Eq-2" value="" style="whiteSpace=wrap;html=1;aspect=fixed;" parent="Kyn-65NMxBrJWZkW65Eq-1" vertex="1">
          <mxGeometry x="880" y="20" width="270" height="270" as="geometry" />
        </mxCell>
        <mxCell id="Kyn-65NMxBrJWZkW65Eq-3" value="MongoDB Роутер1" style="shape=cylinder3;whiteSpace=wrap;html=1;boundedLbl=1;backgroundOutline=1;size=15;" parent="Kyn-65NMxBrJWZkW65Eq-1" vertex="1">
          <mxGeometry x="630" y="470" width="110" height="80" as="geometry" />
        </mxCell>
        <mxCell id="Kyn-65NMxBrJWZkW65Eq-4" value="pymongo-api" style="rounded=1;whiteSpace=wrap;html=1;" parent="Kyn-65NMxBrJWZkW65Eq-1" vertex="1">
          <mxGeometry x="420" y="440" width="120" height="60" as="geometry" />
        </mxCell>
        <mxCell id="Kyn-65NMxBrJWZkW65Eq-5" style="edgeStyle=orthogonalEdgeStyle;rounded=0;orthogonalLoop=1;jettySize=auto;html=1;exitX=1;exitY=0.5;exitDx=0;exitDy=0;entryX=0;entryY=0.5;entryDx=0;entryDy=0;entryPerimeter=0;" parent="Kyn-65NMxBrJWZkW65Eq-1" source="Kyn-65NMxBrJWZkW65Eq-4" target="Kyn-65NMxBrJWZkW65Eq-3" edge="1">
          <mxGeometry relative="1" as="geometry" />
        </mxCell>
        <mxCell id="Kyn-65NMxBrJWZkW65Eq-6" value="cfgSrv1" style="shape=cylinder3;whiteSpace=wrap;html=1;boundedLbl=1;backgroundOutline=1;size=15;" parent="Kyn-65NMxBrJWZkW65Eq-1" vertex="1">
          <mxGeometry x="950" y="60" width="60" height="80" as="geometry" />
        </mxCell>
        <mxCell id="Kyn-65NMxBrJWZkW65Eq-7" value="cfgSrv2" style="shape=cylinder3;whiteSpace=wrap;html=1;boundedLbl=1;backgroundOutline=1;size=15;" parent="Kyn-65NMxBrJWZkW65Eq-1" vertex="1">
          <mxGeometry x="1030" y="160" width="60" height="80" as="geometry" />
        </mxCell>
        <mxCell id="Kyn-65NMxBrJWZkW65Eq-8" value="cfgSrv2" style="shape=cylinder3;whiteSpace=wrap;html=1;boundedLbl=1;backgroundOutline=1;size=15;" parent="Kyn-65NMxBrJWZkW65Eq-1" vertex="1">
          <mxGeometry x="920" y="170" width="60" height="80" as="geometry" />
        </mxCell>
        <mxCell id="Kyn-65NMxBrJWZkW65Eq-9" value="" style="endArrow=classic;startArrow=classic;html=1;rounded=0;entryX=0.5;entryY=1;entryDx=0;entryDy=0;entryPerimeter=0;exitX=0.5;exitY=0;exitDx=0;exitDy=0;exitPerimeter=0;" parent="Kyn-65NMxBrJWZkW65Eq-1" source="Kyn-65NMxBrJWZkW65Eq-8" target="Kyn-65NMxBrJWZkW65Eq-6" edge="1">
          <mxGeometry width="50" height="50" relative="1" as="geometry">
            <mxPoint x="670" y="290" as="sourcePoint" />
            <mxPoint x="720" y="240" as="targetPoint" />
          </mxGeometry>
        </mxCell>
        <mxCell id="Kyn-65NMxBrJWZkW65Eq-10" value="" style="endArrow=classic;startArrow=classic;html=1;rounded=0;entryX=0;entryY=0.5;entryDx=0;entryDy=0;entryPerimeter=0;exitX=1;exitY=0.5;exitDx=0;exitDy=0;exitPerimeter=0;" parent="Kyn-65NMxBrJWZkW65Eq-1" source="Kyn-65NMxBrJWZkW65Eq-8" target="Kyn-65NMxBrJWZkW65Eq-7" edge="1">
          <mxGeometry width="50" height="50" relative="1" as="geometry">
            <mxPoint x="670" y="290" as="sourcePoint" />
            <mxPoint x="720" y="240" as="targetPoint" />
          </mxGeometry>
        </mxCell>
        <mxCell id="Kyn-65NMxBrJWZkW65Eq-11" value="" style="endArrow=classic;startArrow=classic;html=1;rounded=0;exitX=0.855;exitY=1;exitDx=0;exitDy=-4.35;exitPerimeter=0;entryX=0.5;entryY=0;entryDx=0;entryDy=0;entryPerimeter=0;" parent="Kyn-65NMxBrJWZkW65Eq-1" source="Kyn-65NMxBrJWZkW65Eq-6" target="Kyn-65NMxBrJWZkW65Eq-7" edge="1">
          <mxGeometry width="50" height="50" relative="1" as="geometry">
            <mxPoint x="690" y="140" as="sourcePoint" />
            <mxPoint x="720" y="240" as="targetPoint" />
          </mxGeometry>
        </mxCell>
        <mxCell id="Kyn-65NMxBrJWZkW65Eq-12" value="Конфигурационные сервера кластера MongoDB&lt;div&gt;&lt;br&gt;&lt;/div&gt;" style="text;html=1;align=center;verticalAlign=middle;whiteSpace=wrap;rounded=0;" parent="Kyn-65NMxBrJWZkW65Eq-1" vertex="1">
          <mxGeometry x="1050" y="30" width="80" height="50" as="geometry" />
        </mxCell>
        <mxCell id="Kyn-65NMxBrJWZkW65Eq-13" value="" style="endArrow=classic;startArrow=classic;html=1;rounded=0;exitX=0.5;exitY=0;exitDx=0;exitDy=0;exitPerimeter=0;entryX=-0.007;entryY=0.556;entryDx=0;entryDy=0;entryPerimeter=0;" parent="Kyn-65NMxBrJWZkW65Eq-1" source="Kyn-65NMxBrJWZkW65Eq-3" target="Kyn-65NMxBrJWZkW65Eq-2" edge="1">
          <mxGeometry width="50" height="50" relative="1" as="geometry">
            <mxPoint x="510" y="320" as="sourcePoint" />
            <mxPoint x="560" y="270" as="targetPoint" />
          </mxGeometry>
        </mxCell>
        <mxCell id="Kyn-65NMxBrJWZkW65Eq-14" value="" style="rounded=0;whiteSpace=wrap;html=1;" parent="Kyn-65NMxBrJWZkW65Eq-1" vertex="1">
          <mxGeometry x="830" y="390" width="240" height="200" as="geometry" />
        </mxCell>
        <mxCell id="Kyn-65NMxBrJWZkW65Eq-15" value="MongoDB Шард 1" style="text;html=1;align=center;verticalAlign=middle;whiteSpace=wrap;rounded=0;" parent="Kyn-65NMxBrJWZkW65Eq-1" vertex="1">
          <mxGeometry x="930" y="400" width="120" height="30" as="geometry" />
        </mxCell>
        <mxCell id="Kyn-65NMxBrJWZkW65Eq-16" value="shard1-1" style="shape=cylinder3;whiteSpace=wrap;html=1;boundedLbl=1;backgroundOutline=1;size=15;" parent="Kyn-65NMxBrJWZkW65Eq-1" vertex="1">
          <mxGeometry x="870" y="440" width="70" height="60" as="geometry" />
        </mxCell>
        <mxCell id="Kyn-65NMxBrJWZkW65Eq-17" value="" style="endArrow=classic;startArrow=classic;html=1;rounded=0;entryX=1;entryY=0.5;entryDx=0;entryDy=0;entryPerimeter=0;" parent="Kyn-65NMxBrJWZkW65Eq-1" source="Kyn-65NMxBrJWZkW65Eq-14" target="Kyn-65NMxBrJWZkW65Eq-3" edge="1">
          <mxGeometry width="50" height="50" relative="1" as="geometry">
            <mxPoint x="510" y="470" as="sourcePoint" />
            <mxPoint x="560" y="420" as="targetPoint" />
          </mxGeometry>
        </mxCell>
        <mxCell id="Kyn-65NMxBrJWZkW65Eq-18" value="" style="rounded=0;whiteSpace=wrap;html=1;" parent="Kyn-65NMxBrJWZkW65Eq-1" vertex="1">
          <mxGeometry x="835" y="610" width="240" height="200" as="geometry" />
        </mxCell>
        <mxCell id="Kyn-65NMxBrJWZkW65Eq-19" value="MongoDB Шард 2" style="text;html=1;align=center;verticalAlign=middle;whiteSpace=wrap;rounded=0;" parent="Kyn-65NMxBrJWZkW65Eq-1" vertex="1">
          <mxGeometry x="935" y="620" width="120" height="30" as="geometry" />
        </mxCell>
        <mxCell id="Kyn-65NMxBrJWZkW65Eq-20" value="shard2-1" style="shape=cylinder3;whiteSpace=wrap;html=1;boundedLbl=1;backgroundOutline=1;size=15;" parent="Kyn-65NMxBrJWZkW65Eq-1" vertex="1">
          <mxGeometry x="865" y="663" width="70" height="63" as="geometry" />
        </mxCell>
        <mxCell id="Kyn-65NMxBrJWZkW65Eq-21" value="" style="endArrow=classic;startArrow=classic;html=1;rounded=0;entryX=1;entryY=0.5;entryDx=0;entryDy=0;entryPerimeter=0;exitX=0.007;exitY=0.328;exitDx=0;exitDy=0;exitPerimeter=0;" parent="Kyn-65NMxBrJWZkW65Eq-1" source="Kyn-65NMxBrJWZkW65Eq-18" target="Kyn-65NMxBrJWZkW65Eq-3" edge="1">
          <mxGeometry width="50" height="50" relative="1" as="geometry">
            <mxPoint x="510" y="670" as="sourcePoint" />
            <mxPoint x="560" y="620" as="targetPoint" />
          </mxGeometry>
        </mxCell>
        <mxCell id="Kyn-65NMxBrJWZkW65Eq-22" value="shard1-2" style="shape=cylinder3;whiteSpace=wrap;html=1;boundedLbl=1;backgroundOutline=1;size=15;" parent="Kyn-65NMxBrJWZkW65Eq-1" vertex="1">
          <mxGeometry x="980" y="440" width="70" height="60" as="geometry" />
        </mxCell>
        <mxCell id="Kyn-65NMxBrJWZkW65Eq-23" value="shard1-3" style="shape=cylinder3;whiteSpace=wrap;html=1;boundedLbl=1;backgroundOutline=1;size=15;" parent="Kyn-65NMxBrJWZkW65Eq-1" vertex="1">
          <mxGeometry x="920" y="520" width="70" height="60" as="geometry" />
        </mxCell>
        <mxCell id="Kyn-65NMxBrJWZkW65Eq-24" value="" style="endArrow=classic;startArrow=classic;html=1;rounded=0;entryX=0;entryY=0.5;entryDx=0;entryDy=0;entryPerimeter=0;exitX=1;exitY=0.5;exitDx=0;exitDy=0;exitPerimeter=0;" parent="Kyn-65NMxBrJWZkW65Eq-1" source="Kyn-65NMxBrJWZkW65Eq-16" target="Kyn-65NMxBrJWZkW65Eq-22" edge="1">
          <mxGeometry width="50" height="50" relative="1" as="geometry">
            <mxPoint x="930" y="690" as="sourcePoint" />
            <mxPoint x="980" y="640" as="targetPoint" />
          </mxGeometry>
        </mxCell>
        <mxCell id="Kyn-65NMxBrJWZkW65Eq-25" value="" style="endArrow=classic;startArrow=classic;html=1;rounded=0;entryX=0.5;entryY=1;entryDx=0;entryDy=0;entryPerimeter=0;exitX=0.855;exitY=0;exitDx=0;exitDy=4.35;exitPerimeter=0;" parent="Kyn-65NMxBrJWZkW65Eq-1" source="Kyn-65NMxBrJWZkW65Eq-23" target="Kyn-65NMxBrJWZkW65Eq-22" edge="1">
          <mxGeometry width="50" height="50" relative="1" as="geometry">
            <mxPoint x="930" y="690" as="sourcePoint" />
            <mxPoint x="980" y="640" as="targetPoint" />
          </mxGeometry>
        </mxCell>
        <mxCell id="Kyn-65NMxBrJWZkW65Eq-26" value="" style="endArrow=classic;startArrow=classic;html=1;rounded=0;entryX=0.5;entryY=1;entryDx=0;entryDy=0;entryPerimeter=0;exitX=0.257;exitY=0.05;exitDx=0;exitDy=0;exitPerimeter=0;" parent="Kyn-65NMxBrJWZkW65Eq-1" source="Kyn-65NMxBrJWZkW65Eq-23" target="Kyn-65NMxBrJWZkW65Eq-16" edge="1">
          <mxGeometry width="50" height="50" relative="1" as="geometry">
            <mxPoint x="930" y="690" as="sourcePoint" />
            <mxPoint x="980" y="640" as="targetPoint" />
          </mxGeometry>
        </mxCell>
        <mxCell id="Kyn-65NMxBrJWZkW65Eq-27" value="shard2-2" style="shape=cylinder3;whiteSpace=wrap;html=1;boundedLbl=1;backgroundOutline=1;size=15;" parent="Kyn-65NMxBrJWZkW65Eq-1" vertex="1">
          <mxGeometry x="965" y="663" width="70" height="60" as="geometry" />
        </mxCell>
        <mxCell id="Kyn-65NMxBrJWZkW65Eq-28" value="shard2-2" style="shape=cylinder3;whiteSpace=wrap;html=1;boundedLbl=1;backgroundOutline=1;size=15;" parent="Kyn-65NMxBrJWZkW65Eq-1" vertex="1">
          <mxGeometry x="915" y="743" width="70" height="60" as="geometry" />
        </mxCell>
        <mxCell id="Kyn-65NMxBrJWZkW65Eq-29" value="" style="endArrow=classic;startArrow=classic;html=1;rounded=0;exitX=0.855;exitY=1;exitDx=0;exitDy=-4.35;exitPerimeter=0;" parent="Kyn-65NMxBrJWZkW65Eq-1" source="Kyn-65NMxBrJWZkW65Eq-20" target="Kyn-65NMxBrJWZkW65Eq-28" edge="1">
          <mxGeometry width="50" height="50" relative="1" as="geometry">
            <mxPoint x="935" y="673" as="sourcePoint" />
            <mxPoint x="985" y="623" as="targetPoint" />
          </mxGeometry>
        </mxCell>
        <mxCell id="Kyn-65NMxBrJWZkW65Eq-30" value="" style="endArrow=classic;startArrow=classic;html=1;rounded=0;entryX=1;entryY=0;entryDx=0;entryDy=23.25;entryPerimeter=0;exitX=0;exitY=0.5;exitDx=0;exitDy=0;exitPerimeter=0;" parent="Kyn-65NMxBrJWZkW65Eq-1" source="Kyn-65NMxBrJWZkW65Eq-27" target="Kyn-65NMxBrJWZkW65Eq-20" edge="1">
          <mxGeometry width="50" height="50" relative="1" as="geometry">
            <mxPoint x="935" y="673" as="sourcePoint" />
            <mxPoint x="985" y="623" as="targetPoint" />
          </mxGeometry>
        </mxCell>
        <mxCell id="Kyn-65NMxBrJWZkW65Eq-31" value="" style="endArrow=classic;startArrow=classic;html=1;rounded=0;exitX=1;exitY=0;exitDx=0;exitDy=22.5;exitPerimeter=0;entryX=0.5;entryY=1;entryDx=0;entryDy=0;entryPerimeter=0;" parent="Kyn-65NMxBrJWZkW65Eq-1" source="Kyn-65NMxBrJWZkW65Eq-28" target="Kyn-65NMxBrJWZkW65Eq-27" edge="1">
          <mxGeometry width="50" height="50" relative="1" as="geometry">
            <mxPoint x="935" y="673" as="sourcePoint" />
            <mxPoint x="985" y="623" as="targetPoint" />
          </mxGeometry>
        </mxCell>
        <mxCell id="Kyn-65NMxBrJWZkW65Eq-32" value="" style="rounded=0;whiteSpace=wrap;html=1;" parent="Kyn-65NMxBrJWZkW65Eq-1" vertex="1">
          <mxGeometry x="440" y="20" width="360" height="240" as="geometry" />
        </mxCell>
        <mxCell id="Kyn-65NMxBrJWZkW65Eq-33" value="Кластер Redis" style="text;html=1;align=center;verticalAlign=middle;whiteSpace=wrap;rounded=0;" parent="Kyn-65NMxBrJWZkW65Eq-1" vertex="1">
          <mxGeometry x="710" y="20" width="90" height="30" as="geometry" />
        </mxCell>
        <mxCell id="Kyn-65NMxBrJWZkW65Eq-34" value="redis_1" style="shape=cylinder3;whiteSpace=wrap;html=1;boundedLbl=1;backgroundOutline=1;size=15;" parent="Kyn-65NMxBrJWZkW65Eq-1" vertex="1">
          <mxGeometry x="480" y="40" width="60" height="50" as="geometry" />
        </mxCell>
        <mxCell id="Kyn-65NMxBrJWZkW65Eq-35" value="redis_2" style="shape=cylinder3;whiteSpace=wrap;html=1;boundedLbl=1;backgroundOutline=1;size=15;" parent="Kyn-65NMxBrJWZkW65Eq-1" vertex="1">
          <mxGeometry x="620" y="40" width="60" height="50" as="geometry" />
        </mxCell>
        <mxCell id="Kyn-65NMxBrJWZkW65Eq-36" value="redis_3" style="shape=cylinder3;whiteSpace=wrap;html=1;boundedLbl=1;backgroundOutline=1;size=15;" parent="Kyn-65NMxBrJWZkW65Eq-1" vertex="1">
          <mxGeometry x="480" y="120" width="60" height="50" as="geometry" />
        </mxCell>
        <mxCell id="Kyn-65NMxBrJWZkW65Eq-37" value="redis_4" style="shape=cylinder3;whiteSpace=wrap;html=1;boundedLbl=1;backgroundOutline=1;size=15;" parent="Kyn-65NMxBrJWZkW65Eq-1" vertex="1">
          <mxGeometry x="620" y="120" width="60" height="50" as="geometry" />
        </mxCell>
        <mxCell id="Kyn-65NMxBrJWZkW65Eq-38" value="redis_5" style="shape=cylinder3;whiteSpace=wrap;html=1;boundedLbl=1;backgroundOutline=1;size=15;" parent="Kyn-65NMxBrJWZkW65Eq-1" vertex="1">
          <mxGeometry x="480" y="190" width="60" height="50" as="geometry" />
        </mxCell>
        <mxCell id="Kyn-65NMxBrJWZkW65Eq-39" value="redis_6" style="shape=cylinder3;whiteSpace=wrap;html=1;boundedLbl=1;backgroundOutline=1;size=15;" parent="Kyn-65NMxBrJWZkW65Eq-1" vertex="1">
          <mxGeometry x="620" y="190" width="60" height="50" as="geometry" />
        </mxCell>
        <mxCell id="Kyn-65NMxBrJWZkW65Eq-40" value="" style="endArrow=classic;startArrow=classic;html=1;rounded=0;entryX=0;entryY=0;entryDx=0;entryDy=30;entryPerimeter=0;exitX=1;exitY=0.5;exitDx=0;exitDy=0;exitPerimeter=0;" parent="Kyn-65NMxBrJWZkW65Eq-1" source="Kyn-65NMxBrJWZkW65Eq-34" target="Kyn-65NMxBrJWZkW65Eq-35" edge="1">
          <mxGeometry width="50" height="50" relative="1" as="geometry">
            <mxPoint x="670" y="310" as="sourcePoint" />
            <mxPoint x="730" y="290" as="targetPoint" />
          </mxGeometry>
        </mxCell>
        <mxCell id="Kyn-65NMxBrJWZkW65Eq-41" value="" style="endArrow=classic;startArrow=classic;html=1;rounded=0;exitX=1;exitY=0.5;exitDx=0;exitDy=0;exitPerimeter=0;" parent="Kyn-65NMxBrJWZkW65Eq-1" source="Kyn-65NMxBrJWZkW65Eq-34" edge="1">
          <mxGeometry width="50" height="50" relative="1" as="geometry">
            <mxPoint x="670" y="310" as="sourcePoint" />
            <mxPoint x="620" y="150" as="targetPoint" />
          </mxGeometry>
        </mxCell>
        <mxCell id="Kyn-65NMxBrJWZkW65Eq-42" value="" style="endArrow=classic;startArrow=classic;html=1;rounded=0;entryX=1;entryY=0;entryDx=0;entryDy=30;entryPerimeter=0;exitX=0;exitY=0.5;exitDx=0;exitDy=0;exitPerimeter=0;" parent="Kyn-65NMxBrJWZkW65Eq-1" source="Kyn-65NMxBrJWZkW65Eq-39" target="Kyn-65NMxBrJWZkW65Eq-34" edge="1">
          <mxGeometry width="50" height="50" relative="1" as="geometry">
            <mxPoint x="670" y="310" as="sourcePoint" />
            <mxPoint x="720" y="260" as="targetPoint" />
          </mxGeometry>
        </mxCell>
        <mxCell id="Kyn-65NMxBrJWZkW65Eq-43" value="" style="endArrow=classic;startArrow=classic;html=1;rounded=0;exitX=1;exitY=0.5;exitDx=0;exitDy=0;exitPerimeter=0;" parent="Kyn-65NMxBrJWZkW65Eq-1" source="Kyn-65NMxBrJWZkW65Eq-36" edge="1">
          <mxGeometry width="50" height="50" relative="1" as="geometry">
            <mxPoint x="670" y="310" as="sourcePoint" />
            <mxPoint x="620" y="70" as="targetPoint" />
          </mxGeometry>
        </mxCell>
        <mxCell id="Kyn-65NMxBrJWZkW65Eq-44" value="" style="endArrow=classic;startArrow=classic;html=1;rounded=0;entryX=0;entryY=0;entryDx=0;entryDy=30;entryPerimeter=0;exitX=1;exitY=0;exitDx=0;exitDy=20;exitPerimeter=0;" parent="Kyn-65NMxBrJWZkW65Eq-1" source="Kyn-65NMxBrJWZkW65Eq-36" target="Kyn-65NMxBrJWZkW65Eq-37" edge="1">
          <mxGeometry width="50" height="50" relative="1" as="geometry">
            <mxPoint x="620" y="320" as="sourcePoint" />
            <mxPoint x="720" y="260" as="targetPoint" />
          </mxGeometry>
        </mxCell>
        <mxCell id="Kyn-65NMxBrJWZkW65Eq-45" value="" style="endArrow=classic;startArrow=classic;html=1;rounded=0;entryX=0;entryY=0;entryDx=0;entryDy=30;entryPerimeter=0;exitX=1;exitY=0.5;exitDx=0;exitDy=0;exitPerimeter=0;" parent="Kyn-65NMxBrJWZkW65Eq-1" source="Kyn-65NMxBrJWZkW65Eq-36" target="Kyn-65NMxBrJWZkW65Eq-39" edge="1">
          <mxGeometry width="50" height="50" relative="1" as="geometry">
            <mxPoint x="670" y="310" as="sourcePoint" />
            <mxPoint x="720" y="260" as="targetPoint" />
          </mxGeometry>
        </mxCell>
        <mxCell id="Kyn-65NMxBrJWZkW65Eq-46" value="" style="endArrow=classic;startArrow=classic;html=1;rounded=0;exitX=1;exitY=0;exitDx=0;exitDy=20;exitPerimeter=0;entryX=0;entryY=1;entryDx=0;entryDy=-15;entryPerimeter=0;" parent="Kyn-65NMxBrJWZkW65Eq-1" source="Kyn-65NMxBrJWZkW65Eq-38" target="Kyn-65NMxBrJWZkW65Eq-35" edge="1">
          <mxGeometry width="50" height="50" relative="1" as="geometry">
            <mxPoint x="670" y="310" as="sourcePoint" />
            <mxPoint x="720" y="260" as="targetPoint" />
          </mxGeometry>
        </mxCell>
        <mxCell id="Kyn-65NMxBrJWZkW65Eq-47" value="" style="endArrow=classic;startArrow=classic;html=1;rounded=0;exitX=1;exitY=0;exitDx=0;exitDy=15;exitPerimeter=0;" parent="Kyn-65NMxBrJWZkW65Eq-1" source="Kyn-65NMxBrJWZkW65Eq-38" edge="1">
          <mxGeometry width="50" height="50" relative="1" as="geometry">
            <mxPoint x="670" y="310" as="sourcePoint" />
            <mxPoint x="620" y="150" as="targetPoint" />
          </mxGeometry>
        </mxCell>
        <mxCell id="Kyn-65NMxBrJWZkW65Eq-48" value="" style="endArrow=classic;startArrow=classic;html=1;rounded=0;entryX=0;entryY=0.5;entryDx=0;entryDy=0;entryPerimeter=0;exitX=1;exitY=0;exitDx=0;exitDy=15;exitPerimeter=0;" parent="Kyn-65NMxBrJWZkW65Eq-1" source="Kyn-65NMxBrJWZkW65Eq-38" target="Kyn-65NMxBrJWZkW65Eq-39" edge="1">
          <mxGeometry width="50" height="50" relative="1" as="geometry">
            <mxPoint x="670" y="310" as="sourcePoint" />
            <mxPoint x="720" y="260" as="targetPoint" />
          </mxGeometry>
        </mxCell>
        <mxCell id="Kyn-65NMxBrJWZkW65Eq-49" value="" style="endArrow=classic;startArrow=classic;html=1;rounded=0;exitX=1;exitY=0;exitDx=0;exitDy=0;entryX=0.336;entryY=1.003;entryDx=0;entryDy=0;entryPerimeter=0;" parent="Kyn-65NMxBrJWZkW65Eq-1" source="Kyn-65NMxBrJWZkW65Eq-4" target="Kyn-65NMxBrJWZkW65Eq-32" edge="1">
          <mxGeometry width="50" height="50" relative="1" as="geometry">
            <mxPoint x="360" y="320" as="sourcePoint" />
            <mxPoint x="410" y="270" as="targetPoint" />
          </mxGeometry>
        </mxCell>
        <mxCell id="Kyn-65NMxBrJWZkW65Eq-50" value="" style="endArrow=classic;html=1;rounded=0;entryX=0.899;entryY=0.998;entryDx=0;entryDy=0;entryPerimeter=0;" parent="Kyn-65NMxBrJWZkW65Eq-1" target="Kyn-65NMxBrJWZkW65Eq-2" edge="1">
          <mxGeometry width="50" height="50" relative="1" as="geometry">
            <mxPoint x="1120" y="724.5714460100446" as="sourcePoint" />
            <mxPoint x="900" y="330" as="targetPoint" />
          </mxGeometry>
        </mxCell>
        <mxCell id="Kyn-65NMxBrJWZkW65Eq-51" value="" style="endArrow=classic;html=1;rounded=0;entryX=0.999;entryY=0.55;entryDx=0;entryDy=0;entryPerimeter=0;" parent="Kyn-65NMxBrJWZkW65Eq-1" target="Kyn-65NMxBrJWZkW65Eq-18" edge="1">
          <mxGeometry width="50" height="50" relative="1" as="geometry">
            <mxPoint x="1120" y="720" as="sourcePoint" />
            <mxPoint x="1010" y="730" as="targetPoint" />
          </mxGeometry>
        </mxCell>
        <mxCell id="Kyn-65NMxBrJWZkW65Eq-52" value="" style="endArrow=classic;html=1;rounded=0;entryX=1.009;entryY=0.447;entryDx=0;entryDy=0;entryPerimeter=0;" parent="Kyn-65NMxBrJWZkW65Eq-1" target="Kyn-65NMxBrJWZkW65Eq-14" edge="1">
          <mxGeometry width="50" height="50" relative="1" as="geometry">
            <mxPoint x="1120" y="480" as="sourcePoint" />
            <mxPoint x="970" y="550" as="targetPoint" />
          </mxGeometry>
        </mxCell>
        <mxCell id="Kyn-65NMxBrJWZkW65Eq-53" value="pymongo-api" style="rounded=1;whiteSpace=wrap;html=1;" parent="Kyn-65NMxBrJWZkW65Eq-1" vertex="1">
          <mxGeometry x="420" y="570" width="120" height="60" as="geometry" />
        </mxCell>
        <mxCell id="Kyn-65NMxBrJWZkW65Eq-54" style="edgeStyle=orthogonalEdgeStyle;rounded=0;orthogonalLoop=1;jettySize=auto;html=1;entryX=0;entryY=0;entryDx=0;entryDy=52.5;entryPerimeter=0;" parent="Kyn-65NMxBrJWZkW65Eq-1" source="Kyn-65NMxBrJWZkW65Eq-53" target="Kyn-65NMxBrJWZkW65Eq-3" edge="1">
          <mxGeometry relative="1" as="geometry" />
        </mxCell>
        <mxCell id="Kyn-65NMxBrJWZkW65Eq-55" style="edgeStyle=orthogonalEdgeStyle;rounded=0;orthogonalLoop=1;jettySize=auto;html=1;entryX=0;entryY=0.5;entryDx=0;entryDy=0;" parent="Kyn-65NMxBrJWZkW65Eq-1" source="Kyn-65NMxBrJWZkW65Eq-57" target="Kyn-65NMxBrJWZkW65Eq-4" edge="1">
          <mxGeometry relative="1" as="geometry" />
        </mxCell>
        <mxCell id="Kyn-65NMxBrJWZkW65Eq-56" style="edgeStyle=orthogonalEdgeStyle;rounded=0;orthogonalLoop=1;jettySize=auto;html=1;entryX=0;entryY=0.5;entryDx=0;entryDy=0;" parent="Kyn-65NMxBrJWZkW65Eq-1" source="Kyn-65NMxBrJWZkW65Eq-57" target="Kyn-65NMxBrJWZkW65Eq-53" edge="1">
          <mxGeometry relative="1" as="geometry" />
        </mxCell>
        <mxCell id="Kyn-65NMxBrJWZkW65Eq-57" value="APISIX Gateway" style="rounded=1;whiteSpace=wrap;html=1;rotation=90;" parent="Kyn-65NMxBrJWZkW65Eq-1" vertex="1">
          <mxGeometry x="105" y="495" width="210" height="60" as="geometry" />
        </mxCell>
        <mxCell id="Kyn-65NMxBrJWZkW65Eq-58" value="consul_kv" style="rounded=1;whiteSpace=wrap;html=1;rotation=90;" parent="Kyn-65NMxBrJWZkW65Eq-1" vertex="1">
          <mxGeometry x="180" y="610" width="70" height="50" as="geometry" />
        </mxCell>
        <mxCell id="Kyn-65NMxBrJWZkW65Eq-59" value="Consul" style="rounded=1;whiteSpace=wrap;html=1;" parent="Kyn-65NMxBrJWZkW65Eq-1" vertex="1">
          <mxGeometry x="270" y="710" width="120" height="60" as="geometry" />
        </mxCell>
        <mxCell id="Kyn-65NMxBrJWZkW65Eq-60" value="" style="endArrow=classic;startArrow=classic;html=1;rounded=0;exitX=0;exitY=0;exitDx=0;exitDy=0;entryX=0.75;entryY=0;entryDx=0;entryDy=0;" parent="Kyn-65NMxBrJWZkW65Eq-1" source="Kyn-65NMxBrJWZkW65Eq-59" target="Kyn-65NMxBrJWZkW65Eq-58" edge="1">
          <mxGeometry width="50" height="50" relative="1" as="geometry">
            <mxPoint x="310" y="620" as="sourcePoint" />
            <mxPoint x="360" y="570" as="targetPoint" />
          </mxGeometry>
        </mxCell>
        <mxCell id="Kyn-65NMxBrJWZkW65Eq-61" value="" style="endArrow=classic;startArrow=classic;html=1;rounded=0;exitX=1;exitY=0.75;exitDx=0;exitDy=0;entryX=0.675;entryY=1.092;entryDx=0;entryDy=0;entryPerimeter=0;" parent="Kyn-65NMxBrJWZkW65Eq-1" source="Kyn-65NMxBrJWZkW65Eq-59" target="Kyn-65NMxBrJWZkW65Eq-53" edge="1">
          <mxGeometry width="50" height="50" relative="1" as="geometry">
            <mxPoint x="310" y="620" as="sourcePoint" />
            <mxPoint x="360" y="570" as="targetPoint" />
          </mxGeometry>
        </mxCell>
        <mxCell id="Kyn-65NMxBrJWZkW65Eq-62" value="" style="endArrow=classic;startArrow=classic;html=1;rounded=0;entryX=0;entryY=1;entryDx=0;entryDy=0;exitX=0.433;exitY=0.025;exitDx=0;exitDy=0;exitPerimeter=0;" parent="Kyn-65NMxBrJWZkW65Eq-1" source="Kyn-65NMxBrJWZkW65Eq-59" target="Kyn-65NMxBrJWZkW65Eq-4" edge="1">
          <mxGeometry width="50" height="50" relative="1" as="geometry">
            <mxPoint x="310" y="620" as="sourcePoint" />
            <mxPoint x="360" y="570" as="targetPoint" />
          </mxGeometry>
        </mxCell>
        <mxCell id="Kyn-65NMxBrJWZkW65Eq-63" value="" style="edgeStyle=orthogonalEdgeStyle;rounded=0;orthogonalLoop=1;jettySize=auto;html=1;" parent="Kyn-65NMxBrJWZkW65Eq-1" source="Kyn-65NMxBrJWZkW65Eq-64" target="Kyn-65NMxBrJWZkW65Eq-57" edge="1">
          <mxGeometry relative="1" as="geometry" />
        </mxCell>
        <mxCell id="Kyn-65NMxBrJWZkW65Eq-64" value="Client" style="shape=umlActor;verticalLabelPosition=bottom;verticalAlign=top;html=1;outlineConnect=0;" parent="Kyn-65NMxBrJWZkW65Eq-1" vertex="1">
          <mxGeometry x="60" y="490" width="30" height="60" as="geometry" />
        </mxCell>
        <mxCell id="Kyn-65NMxBrJWZkW65Eq-65" value="MongoDB Роутер2" style="shape=cylinder3;whiteSpace=wrap;html=1;boundedLbl=1;backgroundOutline=1;size=15;" parent="Kyn-65NMxBrJWZkW65Eq-1" vertex="1">
          <mxGeometry x="630" y="530" width="110" height="80" as="geometry" />
        </mxCell>
        <mxCell id="Tdvz74RbRc-Wdy9gfZa_-3" value="" style="rounded=0;whiteSpace=wrap;html=1;" parent="Kyn-65NMxBrJWZkW65Eq-1" vertex="1">
          <mxGeometry x="30" y="140" width="160" height="220" as="geometry" />
        </mxCell>
        <mxCell id="Tdvz74RbRc-Wdy9gfZa_-10" style="edgeStyle=orthogonalEdgeStyle;rounded=0;orthogonalLoop=1;jettySize=auto;html=1;" parent="Kyn-65NMxBrJWZkW65Eq-1" source="Tdvz74RbRc-Wdy9gfZa_-0" target="Tdvz74RbRc-Wdy9gfZa_-6" edge="1">
          <mxGeometry relative="1" as="geometry" />
        </mxCell>
        <mxCell id="Tdvz74RbRc-Wdy9gfZa_-0" value="Client" style="shape=umlActor;verticalLabelPosition=bottom;verticalAlign=top;html=1;outlineConnect=0;" parent="Kyn-65NMxBrJWZkW65Eq-1" vertex="1">
          <mxGeometry x="60" y="270" width="30" height="60" as="geometry" />
        </mxCell>
        <mxCell id="Tdvz74RbRc-Wdy9gfZa_-4" value="" style="rounded=0;whiteSpace=wrap;html=1;" parent="Kyn-65NMxBrJWZkW65Eq-1" vertex="1">
          <mxGeometry x="230" y="140" width="190" height="220" as="geometry" />
        </mxCell>
        <mxCell id="Tdvz74RbRc-Wdy9gfZa_-6" value="CDN" style="shape=cylinder3;whiteSpace=wrap;html=1;boundedLbl=1;backgroundOutline=1;size=15;" parent="Kyn-65NMxBrJWZkW65Eq-1" vertex="1">
          <mxGeometry x="90" y="185" width="50" height="50" as="geometry" />
        </mxCell>
        <mxCell id="Tdvz74RbRc-Wdy9gfZa_-7" value="Регион 1" style="text;html=1;align=center;verticalAlign=middle;whiteSpace=wrap;rounded=0;" parent="Kyn-65NMxBrJWZkW65Eq-1" vertex="1">
          <mxGeometry x="120" y="150" width="60" height="30" as="geometry" />
        </mxCell>
        <mxCell id="Tdvz74RbRc-Wdy9gfZa_-8" value="Регион 2" style="text;html=1;align=center;verticalAlign=middle;whiteSpace=wrap;rounded=0;" parent="Kyn-65NMxBrJWZkW65Eq-1" vertex="1">
          <mxGeometry x="340" y="155" width="60" height="30" as="geometry" />
        </mxCell>
        <mxCell id="Tdvz74RbRc-Wdy9gfZa_-9" value="CDN" style="shape=cylinder3;whiteSpace=wrap;html=1;boundedLbl=1;backgroundOutline=1;size=15;" parent="Kyn-65NMxBrJWZkW65Eq-1" vertex="1">
          <mxGeometry x="345" y="190" width="50" height="50" as="geometry" />
        </mxCell>
        <mxCell id="Tdvz74RbRc-Wdy9gfZa_-13" style="edgeStyle=orthogonalEdgeStyle;rounded=0;orthogonalLoop=1;jettySize=auto;html=1;" parent="Kyn-65NMxBrJWZkW65Eq-1" source="Tdvz74RbRc-Wdy9gfZa_-12" target="Tdvz74RbRc-Wdy9gfZa_-9" edge="1">
          <mxGeometry relative="1" as="geometry" />
        </mxCell>
        <mxCell id="Tdvz74RbRc-Wdy9gfZa_-12" value="Client" style="shape=umlActor;verticalLabelPosition=bottom;verticalAlign=top;html=1;outlineConnect=0;" parent="Kyn-65NMxBrJWZkW65Eq-1" vertex="1">
          <mxGeometry x="280" y="270" width="30" height="60" as="geometry" />
        </mxCell>
        <mxCell id="Tdvz74RbRc-Wdy9gfZa_-17" value="Хранилище статических данных" style="shape=cylinder3;whiteSpace=wrap;html=1;boundedLbl=1;backgroundOutline=1;size=15;" parent="Kyn-65NMxBrJWZkW65Eq-1" vertex="1">
          <mxGeometry x="170" y="20" width="130" height="80" as="geometry" />
        </mxCell>
        <mxCell id="Tdvz74RbRc-Wdy9gfZa_-18" value="" style="endArrow=classic;startArrow=classic;html=1;rounded=0;entryX=0.145;entryY=1;entryDx=0;entryDy=-4.35;entryPerimeter=0;exitX=0.6;exitY=-0.008;exitDx=0;exitDy=0;exitPerimeter=0;" parent="Kyn-65NMxBrJWZkW65Eq-1" source="Tdvz74RbRc-Wdy9gfZa_-3" target="Tdvz74RbRc-Wdy9gfZa_-17" edge="1">
          <mxGeometry width="50" height="50" relative="1" as="geometry">
            <mxPoint x="320" y="320" as="sourcePoint" />
            <mxPoint x="370" y="270" as="targetPoint" />
          </mxGeometry>
        </mxCell>
        <mxCell id="Tdvz74RbRc-Wdy9gfZa_-19" value="" style="endArrow=classic;startArrow=classic;html=1;rounded=0;entryX=0.855;entryY=1;entryDx=0;entryDy=-4.35;entryPerimeter=0;exitX=0.602;exitY=0.005;exitDx=0;exitDy=0;exitPerimeter=0;" parent="Kyn-65NMxBrJWZkW65Eq-1" source="Tdvz74RbRc-Wdy9gfZa_-4" target="Tdvz74RbRc-Wdy9gfZa_-17" edge="1">
          <mxGeometry width="50" height="50" relative="1" as="geometry">
            <mxPoint x="320" y="320" as="sourcePoint" />
            <mxPoint x="370" y="270" as="targetPoint" />
          </mxGeometry>
        </mxCell>
        <mxCell id="Tdvz74RbRc-Wdy9gfZa_-20" value="" style="endArrow=classic;startArrow=classic;html=1;rounded=0;exitX=1;exitY=0.25;exitDx=0;exitDy=0;entryX=0.623;entryY=0.991;entryDx=0;entryDy=0;entryPerimeter=0;" parent="Kyn-65NMxBrJWZkW65Eq-1" source="Kyn-65NMxBrJWZkW65Eq-53" target="Kyn-65NMxBrJWZkW65Eq-32" edge="1">
          <mxGeometry width="50" height="50" relative="1" as="geometry">
            <mxPoint x="340" y="370" as="sourcePoint" />
            <mxPoint x="390" y="320" as="targetPoint" />
          </mxGeometry>
        </mxCell>
      </root>
    </mxGraphModel>
  </diagram>
  <diagram name="Начало" id="-H_mtQnk-PTXWXPvYvuk">
    <mxGraphModel dx="1050" dy="565" grid="1" gridSize="10" guides="1" tooltips="1" connect="1" arrows="1" fold="1" page="1" pageScale="1" pageWidth="1169" pageHeight="827" math="0" shadow="0">
      <root>
        <mxCell id="0" />
        <mxCell id="1" parent="0" />
        <mxCell id="zA23MoTUsTF4_91t8viU-2" value="MongoDB" style="shape=cylinder3;whiteSpace=wrap;html=1;boundedLbl=1;backgroundOutline=1;size=15;" parent="1" vertex="1">
          <mxGeometry x="560" y="280" width="60" height="80" as="geometry" />
        </mxCell>
        <mxCell id="zA23MoTUsTF4_91t8viU-3" value="pymongo-api" style="rounded=1;whiteSpace=wrap;html=1;" parent="1" vertex="1">
          <mxGeometry x="360" y="290" width="120" height="60" as="geometry" />
        </mxCell>
        <mxCell id="zA23MoTUsTF4_91t8viU-4" style="edgeStyle=orthogonalEdgeStyle;rounded=0;orthogonalLoop=1;jettySize=auto;html=1;exitX=1;exitY=0.5;exitDx=0;exitDy=0;entryX=0;entryY=0.5;entryDx=0;entryDy=0;entryPerimeter=0;" parent="1" source="zA23MoTUsTF4_91t8viU-3" target="zA23MoTUsTF4_91t8viU-2" edge="1">
          <mxGeometry relative="1" as="geometry" />
        </mxCell>
      </root>
    </mxGraphModel>
  </diagram>
  <diagram name="Схема 1" id="mCQY9UEKAEa6nVXRiXaw">
    <mxGraphModel dx="1050" dy="565" grid="1" gridSize="10" guides="1" tooltips="1" connect="1" arrows="1" fold="1" page="1" pageScale="1" pageWidth="1169" pageHeight="827" math="0" shadow="0">
      <root>
        <mxCell id="inwa2Kl7-v6j_vxZ3hn_-0" />
        <mxCell id="inwa2Kl7-v6j_vxZ3hn_-1" parent="inwa2Kl7-v6j_vxZ3hn_-0" />
        <mxCell id="KCBxoxdqAPCa_BgHCTdk-8" value="" style="whiteSpace=wrap;html=1;aspect=fixed;" parent="inwa2Kl7-v6j_vxZ3hn_-1" vertex="1">
          <mxGeometry x="720" y="50" width="270" height="270" as="geometry" />
        </mxCell>
        <mxCell id="inwa2Kl7-v6j_vxZ3hn_-2" value="MongoDB Роутер" style="shape=cylinder3;whiteSpace=wrap;html=1;boundedLbl=1;backgroundOutline=1;size=15;" parent="inwa2Kl7-v6j_vxZ3hn_-1" vertex="1">
          <mxGeometry x="220" y="320" width="110" height="80" as="geometry" />
        </mxCell>
        <mxCell id="inwa2Kl7-v6j_vxZ3hn_-3" value="pymongo-api" style="rounded=1;whiteSpace=wrap;html=1;" parent="inwa2Kl7-v6j_vxZ3hn_-1" vertex="1">
          <mxGeometry x="30" y="330" width="120" height="60" as="geometry" />
        </mxCell>
        <mxCell id="inwa2Kl7-v6j_vxZ3hn_-4" style="edgeStyle=orthogonalEdgeStyle;rounded=0;orthogonalLoop=1;jettySize=auto;html=1;exitX=1;exitY=0.5;exitDx=0;exitDy=0;entryX=0;entryY=0.5;entryDx=0;entryDy=0;entryPerimeter=0;" parent="inwa2Kl7-v6j_vxZ3hn_-1" source="inwa2Kl7-v6j_vxZ3hn_-3" target="inwa2Kl7-v6j_vxZ3hn_-2" edge="1">
          <mxGeometry relative="1" as="geometry" />
        </mxCell>
        <mxCell id="KCBxoxdqAPCa_BgHCTdk-0" value="cfgSrv1" style="shape=cylinder3;whiteSpace=wrap;html=1;boundedLbl=1;backgroundOutline=1;size=15;" parent="inwa2Kl7-v6j_vxZ3hn_-1" vertex="1">
          <mxGeometry x="810" y="140" width="60" height="80" as="geometry" />
        </mxCell>
        <mxCell id="KCBxoxdqAPCa_BgHCTdk-9" value="Конфигурационные сервера кластера MongoDB&lt;div&gt;&lt;br&gt;&lt;/div&gt;" style="text;html=1;align=center;verticalAlign=middle;whiteSpace=wrap;rounded=0;" parent="inwa2Kl7-v6j_vxZ3hn_-1" vertex="1">
          <mxGeometry x="890" y="60" width="80" height="50" as="geometry" />
        </mxCell>
        <mxCell id="KCBxoxdqAPCa_BgHCTdk-10" value="" style="endArrow=classic;startArrow=classic;html=1;rounded=0;exitX=0.5;exitY=0;exitDx=0;exitDy=0;exitPerimeter=0;entryX=-0.007;entryY=0.556;entryDx=0;entryDy=0;entryPerimeter=0;" parent="inwa2Kl7-v6j_vxZ3hn_-1" source="inwa2Kl7-v6j_vxZ3hn_-2" target="KCBxoxdqAPCa_BgHCTdk-8" edge="1">
          <mxGeometry width="50" height="50" relative="1" as="geometry">
            <mxPoint x="510" y="320" as="sourcePoint" />
            <mxPoint x="560" y="270" as="targetPoint" />
          </mxGeometry>
        </mxCell>
        <mxCell id="KCBxoxdqAPCa_BgHCTdk-11" value="" style="rounded=0;whiteSpace=wrap;html=1;" parent="inwa2Kl7-v6j_vxZ3hn_-1" vertex="1">
          <mxGeometry x="410" y="380" width="240" height="200" as="geometry" />
        </mxCell>
        <mxCell id="KCBxoxdqAPCa_BgHCTdk-12" value="MongoDB Шард 1" style="text;html=1;align=center;verticalAlign=middle;whiteSpace=wrap;rounded=0;" parent="inwa2Kl7-v6j_vxZ3hn_-1" vertex="1">
          <mxGeometry x="510" y="390" width="120" height="30" as="geometry" />
        </mxCell>
        <mxCell id="KCBxoxdqAPCa_BgHCTdk-13" value="shard1-1" style="shape=cylinder3;whiteSpace=wrap;html=1;boundedLbl=1;backgroundOutline=1;size=15;" parent="inwa2Kl7-v6j_vxZ3hn_-1" vertex="1">
          <mxGeometry x="490" y="440" width="90" height="80" as="geometry" />
        </mxCell>
        <mxCell id="KCBxoxdqAPCa_BgHCTdk-14" value="" style="endArrow=classic;startArrow=classic;html=1;rounded=0;entryX=1;entryY=0.5;entryDx=0;entryDy=0;entryPerimeter=0;exitX=0;exitY=0.5;exitDx=0;exitDy=0;exitPerimeter=0;" parent="inwa2Kl7-v6j_vxZ3hn_-1" source="KCBxoxdqAPCa_BgHCTdk-13" target="inwa2Kl7-v6j_vxZ3hn_-2" edge="1">
          <mxGeometry width="50" height="50" relative="1" as="geometry">
            <mxPoint x="510" y="470" as="sourcePoint" />
            <mxPoint x="560" y="420" as="targetPoint" />
          </mxGeometry>
        </mxCell>
        <mxCell id="KCBxoxdqAPCa_BgHCTdk-15" value="" style="rounded=0;whiteSpace=wrap;html=1;" parent="inwa2Kl7-v6j_vxZ3hn_-1" vertex="1">
          <mxGeometry x="410" y="617" width="240" height="200" as="geometry" />
        </mxCell>
        <mxCell id="KCBxoxdqAPCa_BgHCTdk-16" value="MongoDB Шард 2" style="text;html=1;align=center;verticalAlign=middle;whiteSpace=wrap;rounded=0;" parent="inwa2Kl7-v6j_vxZ3hn_-1" vertex="1">
          <mxGeometry x="510" y="627" width="120" height="30" as="geometry" />
        </mxCell>
        <mxCell id="KCBxoxdqAPCa_BgHCTdk-17" value="shard2-1" style="shape=cylinder3;whiteSpace=wrap;html=1;boundedLbl=1;backgroundOutline=1;size=15;" parent="inwa2Kl7-v6j_vxZ3hn_-1" vertex="1">
          <mxGeometry x="490" y="677" width="90" height="80" as="geometry" />
        </mxCell>
        <mxCell id="KCBxoxdqAPCa_BgHCTdk-18" value="" style="endArrow=classic;startArrow=classic;html=1;rounded=0;entryX=1;entryY=0.5;entryDx=0;entryDy=0;entryPerimeter=0;exitX=0;exitY=0.5;exitDx=0;exitDy=0;exitPerimeter=0;" parent="inwa2Kl7-v6j_vxZ3hn_-1" source="KCBxoxdqAPCa_BgHCTdk-17" target="inwa2Kl7-v6j_vxZ3hn_-2" edge="1">
          <mxGeometry width="50" height="50" relative="1" as="geometry">
            <mxPoint x="510" y="670" as="sourcePoint" />
            <mxPoint x="560" y="620" as="targetPoint" />
          </mxGeometry>
        </mxCell>
        <mxCell id="absa1Tz5G8LyngG5h0ij-0" value="" style="endArrow=classic;startArrow=classic;html=1;rounded=0;entryX=0.5;entryY=1;entryDx=0;entryDy=0;exitX=1;exitY=0.5;exitDx=0;exitDy=0;" parent="inwa2Kl7-v6j_vxZ3hn_-1" source="KCBxoxdqAPCa_BgHCTdk-11" target="KCBxoxdqAPCa_BgHCTdk-8" edge="1">
          <mxGeometry width="50" height="50" relative="1" as="geometry">
            <mxPoint x="510" y="450" as="sourcePoint" />
            <mxPoint x="560" y="400" as="targetPoint" />
          </mxGeometry>
        </mxCell>
        <mxCell id="absa1Tz5G8LyngG5h0ij-1" value="" style="endArrow=classic;startArrow=classic;html=1;rounded=0;entryX=0.5;entryY=1;entryDx=0;entryDy=0;exitX=0.987;exitY=0.36;exitDx=0;exitDy=0;exitPerimeter=0;" parent="inwa2Kl7-v6j_vxZ3hn_-1" source="KCBxoxdqAPCa_BgHCTdk-15" target="KCBxoxdqAPCa_BgHCTdk-8" edge="1">
          <mxGeometry width="50" height="50" relative="1" as="geometry">
            <mxPoint x="510" y="450" as="sourcePoint" />
            <mxPoint x="560" y="400" as="targetPoint" />
          </mxGeometry>
        </mxCell>
      </root>
    </mxGraphModel>
  </diagram>
  <diagram name="Схема 2" id="0BzmYHB6D3FwPMekHYiE">
    <mxGraphModel dx="1313" dy="706" grid="1" gridSize="10" guides="1" tooltips="1" connect="1" arrows="1" fold="1" page="1" pageScale="1" pageWidth="1169" pageHeight="827" math="0" shadow="0">
      <root>
        <mxCell id="1CypIrtETw59KLQYTkcJ-0" />
        <mxCell id="1CypIrtETw59KLQYTkcJ-1" parent="1CypIrtETw59KLQYTkcJ-0" />
        <mxCell id="1CypIrtETw59KLQYTkcJ-2" value="" style="whiteSpace=wrap;html=1;aspect=fixed;" parent="1CypIrtETw59KLQYTkcJ-1" vertex="1">
          <mxGeometry x="720" y="50" width="270" height="270" as="geometry" />
        </mxCell>
        <mxCell id="1CypIrtETw59KLQYTkcJ-3" value="MongoDB Роутер1" style="shape=cylinder3;whiteSpace=wrap;html=1;boundedLbl=1;backgroundOutline=1;size=15;" parent="1CypIrtETw59KLQYTkcJ-1" vertex="1">
          <mxGeometry x="220" y="320" width="110" height="80" as="geometry" />
        </mxCell>
        <mxCell id="1CypIrtETw59KLQYTkcJ-4" value="pymongo-api" style="rounded=1;whiteSpace=wrap;html=1;" parent="1CypIrtETw59KLQYTkcJ-1" vertex="1">
          <mxGeometry x="30" y="330" width="120" height="60" as="geometry" />
        </mxCell>
        <mxCell id="1CypIrtETw59KLQYTkcJ-5" style="edgeStyle=orthogonalEdgeStyle;rounded=0;orthogonalLoop=1;jettySize=auto;html=1;exitX=1;exitY=0.5;exitDx=0;exitDy=0;entryX=0;entryY=0.5;entryDx=0;entryDy=0;entryPerimeter=0;" parent="1CypIrtETw59KLQYTkcJ-1" source="1CypIrtETw59KLQYTkcJ-4" target="1CypIrtETw59KLQYTkcJ-3" edge="1">
          <mxGeometry relative="1" as="geometry" />
        </mxCell>
        <mxCell id="1CypIrtETw59KLQYTkcJ-6" value="cfgSrv1" style="shape=cylinder3;whiteSpace=wrap;html=1;boundedLbl=1;backgroundOutline=1;size=15;" parent="1CypIrtETw59KLQYTkcJ-1" vertex="1">
          <mxGeometry x="790" y="90" width="60" height="80" as="geometry" />
        </mxCell>
        <mxCell id="1CypIrtETw59KLQYTkcJ-7" value="cfgSrv2" style="shape=cylinder3;whiteSpace=wrap;html=1;boundedLbl=1;backgroundOutline=1;size=15;" parent="1CypIrtETw59KLQYTkcJ-1" vertex="1">
          <mxGeometry x="870" y="190" width="60" height="80" as="geometry" />
        </mxCell>
        <mxCell id="1CypIrtETw59KLQYTkcJ-8" value="cfgSrv2" style="shape=cylinder3;whiteSpace=wrap;html=1;boundedLbl=1;backgroundOutline=1;size=15;" parent="1CypIrtETw59KLQYTkcJ-1" vertex="1">
          <mxGeometry x="760" y="200" width="60" height="80" as="geometry" />
        </mxCell>
        <mxCell id="1CypIrtETw59KLQYTkcJ-9" value="" style="endArrow=classic;startArrow=classic;html=1;rounded=0;entryX=0.5;entryY=1;entryDx=0;entryDy=0;entryPerimeter=0;exitX=0.5;exitY=0;exitDx=0;exitDy=0;exitPerimeter=0;" parent="1CypIrtETw59KLQYTkcJ-1" source="1CypIrtETw59KLQYTkcJ-8" target="1CypIrtETw59KLQYTkcJ-6" edge="1">
          <mxGeometry width="50" height="50" relative="1" as="geometry">
            <mxPoint x="510" y="320" as="sourcePoint" />
            <mxPoint x="560" y="270" as="targetPoint" />
          </mxGeometry>
        </mxCell>
        <mxCell id="1CypIrtETw59KLQYTkcJ-10" value="" style="endArrow=classic;startArrow=classic;html=1;rounded=0;entryX=0;entryY=0.5;entryDx=0;entryDy=0;entryPerimeter=0;exitX=1;exitY=0.5;exitDx=0;exitDy=0;exitPerimeter=0;" parent="1CypIrtETw59KLQYTkcJ-1" source="1CypIrtETw59KLQYTkcJ-8" target="1CypIrtETw59KLQYTkcJ-7" edge="1">
          <mxGeometry width="50" height="50" relative="1" as="geometry">
            <mxPoint x="510" y="320" as="sourcePoint" />
            <mxPoint x="560" y="270" as="targetPoint" />
          </mxGeometry>
        </mxCell>
        <mxCell id="1CypIrtETw59KLQYTkcJ-11" value="" style="endArrow=classic;startArrow=classic;html=1;rounded=0;exitX=0.855;exitY=1;exitDx=0;exitDy=-4.35;exitPerimeter=0;entryX=0.5;entryY=0;entryDx=0;entryDy=0;entryPerimeter=0;" parent="1CypIrtETw59KLQYTkcJ-1" source="1CypIrtETw59KLQYTkcJ-6" target="1CypIrtETw59KLQYTkcJ-7" edge="1">
          <mxGeometry width="50" height="50" relative="1" as="geometry">
            <mxPoint x="530" y="170" as="sourcePoint" />
            <mxPoint x="560" y="270" as="targetPoint" />
          </mxGeometry>
        </mxCell>
        <mxCell id="1CypIrtETw59KLQYTkcJ-12" value="Конфигурационные сервера кластера MongoDB&lt;div&gt;&lt;br&gt;&lt;/div&gt;" style="text;html=1;align=center;verticalAlign=middle;whiteSpace=wrap;rounded=0;" parent="1CypIrtETw59KLQYTkcJ-1" vertex="1">
          <mxGeometry x="890" y="60" width="80" height="50" as="geometry" />
        </mxCell>
        <mxCell id="1CypIrtETw59KLQYTkcJ-13" value="" style="endArrow=classic;startArrow=classic;html=1;rounded=0;exitX=0.5;exitY=0;exitDx=0;exitDy=0;exitPerimeter=0;entryX=-0.007;entryY=0.556;entryDx=0;entryDy=0;entryPerimeter=0;" parent="1CypIrtETw59KLQYTkcJ-1" source="1CypIrtETw59KLQYTkcJ-3" target="1CypIrtETw59KLQYTkcJ-2" edge="1">
          <mxGeometry width="50" height="50" relative="1" as="geometry">
            <mxPoint x="510" y="320" as="sourcePoint" />
            <mxPoint x="560" y="270" as="targetPoint" />
          </mxGeometry>
        </mxCell>
        <mxCell id="1CypIrtETw59KLQYTkcJ-14" value="" style="rounded=0;whiteSpace=wrap;html=1;" parent="1CypIrtETw59KLQYTkcJ-1" vertex="1">
          <mxGeometry x="410" y="380" width="240" height="200" as="geometry" />
        </mxCell>
        <mxCell id="1CypIrtETw59KLQYTkcJ-15" value="MongoDB Шард 1" style="text;html=1;align=center;verticalAlign=middle;whiteSpace=wrap;rounded=0;" parent="1CypIrtETw59KLQYTkcJ-1" vertex="1">
          <mxGeometry x="510" y="390" width="120" height="30" as="geometry" />
        </mxCell>
        <mxCell id="1CypIrtETw59KLQYTkcJ-16" value="shard1-1" style="shape=cylinder3;whiteSpace=wrap;html=1;boundedLbl=1;backgroundOutline=1;size=15;" parent="1CypIrtETw59KLQYTkcJ-1" vertex="1">
          <mxGeometry x="450" y="430" width="70" height="60" as="geometry" />
        </mxCell>
        <mxCell id="1CypIrtETw59KLQYTkcJ-17" value="" style="endArrow=classic;startArrow=classic;html=1;rounded=0;entryX=1;entryY=0.5;entryDx=0;entryDy=0;entryPerimeter=0;" parent="1CypIrtETw59KLQYTkcJ-1" source="1CypIrtETw59KLQYTkcJ-14" target="1CypIrtETw59KLQYTkcJ-3" edge="1">
          <mxGeometry width="50" height="50" relative="1" as="geometry">
            <mxPoint x="510" y="470" as="sourcePoint" />
            <mxPoint x="560" y="420" as="targetPoint" />
          </mxGeometry>
        </mxCell>
        <mxCell id="1CypIrtETw59KLQYTkcJ-18" value="" style="rounded=0;whiteSpace=wrap;html=1;" parent="1CypIrtETw59KLQYTkcJ-1" vertex="1">
          <mxGeometry x="410" y="617" width="240" height="200" as="geometry" />
        </mxCell>
        <mxCell id="1CypIrtETw59KLQYTkcJ-19" value="MongoDB Шард 2" style="text;html=1;align=center;verticalAlign=middle;whiteSpace=wrap;rounded=0;" parent="1CypIrtETw59KLQYTkcJ-1" vertex="1">
          <mxGeometry x="510" y="627" width="120" height="30" as="geometry" />
        </mxCell>
        <mxCell id="1CypIrtETw59KLQYTkcJ-20" value="shard2-1" style="shape=cylinder3;whiteSpace=wrap;html=1;boundedLbl=1;backgroundOutline=1;size=15;" parent="1CypIrtETw59KLQYTkcJ-1" vertex="1">
          <mxGeometry x="440" y="670" width="70" height="63" as="geometry" />
        </mxCell>
        <mxCell id="1CypIrtETw59KLQYTkcJ-21" value="" style="endArrow=classic;startArrow=classic;html=1;rounded=0;entryX=1;entryY=0.5;entryDx=0;entryDy=0;entryPerimeter=0;exitX=0.007;exitY=0.328;exitDx=0;exitDy=0;exitPerimeter=0;" parent="1CypIrtETw59KLQYTkcJ-1" source="1CypIrtETw59KLQYTkcJ-18" target="1CypIrtETw59KLQYTkcJ-3" edge="1">
          <mxGeometry width="50" height="50" relative="1" as="geometry">
            <mxPoint x="510" y="670" as="sourcePoint" />
            <mxPoint x="560" y="620" as="targetPoint" />
          </mxGeometry>
        </mxCell>
        <mxCell id="1CypIrtETw59KLQYTkcJ-22" value="" style="endArrow=classic;startArrow=classic;html=1;rounded=0;entryX=0.5;entryY=1;entryDx=0;entryDy=0;exitX=1;exitY=0.5;exitDx=0;exitDy=0;" parent="1CypIrtETw59KLQYTkcJ-1" source="1CypIrtETw59KLQYTkcJ-14" target="1CypIrtETw59KLQYTkcJ-2" edge="1">
          <mxGeometry width="50" height="50" relative="1" as="geometry">
            <mxPoint x="510" y="450" as="sourcePoint" />
            <mxPoint x="560" y="400" as="targetPoint" />
          </mxGeometry>
        </mxCell>
        <mxCell id="1CypIrtETw59KLQYTkcJ-23" value="" style="endArrow=classic;startArrow=classic;html=1;rounded=0;entryX=0.5;entryY=1;entryDx=0;entryDy=0;exitX=0.987;exitY=0.36;exitDx=0;exitDy=0;exitPerimeter=0;" parent="1CypIrtETw59KLQYTkcJ-1" source="1CypIrtETw59KLQYTkcJ-18" target="1CypIrtETw59KLQYTkcJ-2" edge="1">
          <mxGeometry width="50" height="50" relative="1" as="geometry">
            <mxPoint x="510" y="450" as="sourcePoint" />
            <mxPoint x="560" y="400" as="targetPoint" />
          </mxGeometry>
        </mxCell>
        <mxCell id="YhXr0Mxy0ZHEoZc0PFzv-0" value="shard1-2" style="shape=cylinder3;whiteSpace=wrap;html=1;boundedLbl=1;backgroundOutline=1;size=15;" parent="1CypIrtETw59KLQYTkcJ-1" vertex="1">
          <mxGeometry x="560" y="430" width="70" height="60" as="geometry" />
        </mxCell>
        <mxCell id="YhXr0Mxy0ZHEoZc0PFzv-2" value="shard1-3" style="shape=cylinder3;whiteSpace=wrap;html=1;boundedLbl=1;backgroundOutline=1;size=15;" parent="1CypIrtETw59KLQYTkcJ-1" vertex="1">
          <mxGeometry x="500" y="510" width="70" height="60" as="geometry" />
        </mxCell>
        <mxCell id="YhXr0Mxy0ZHEoZc0PFzv-4" value="" style="endArrow=classic;startArrow=classic;html=1;rounded=0;entryX=0;entryY=0.5;entryDx=0;entryDy=0;entryPerimeter=0;exitX=1;exitY=0.5;exitDx=0;exitDy=0;exitPerimeter=0;" parent="1CypIrtETw59KLQYTkcJ-1" source="1CypIrtETw59KLQYTkcJ-16" target="YhXr0Mxy0ZHEoZc0PFzv-0" edge="1">
          <mxGeometry width="50" height="50" relative="1" as="geometry">
            <mxPoint x="510" y="680" as="sourcePoint" />
            <mxPoint x="560" y="630" as="targetPoint" />
          </mxGeometry>
        </mxCell>
        <mxCell id="YhXr0Mxy0ZHEoZc0PFzv-5" value="" style="endArrow=classic;startArrow=classic;html=1;rounded=0;entryX=0.5;entryY=1;entryDx=0;entryDy=0;entryPerimeter=0;exitX=0.855;exitY=0;exitDx=0;exitDy=4.35;exitPerimeter=0;" parent="1CypIrtETw59KLQYTkcJ-1" source="YhXr0Mxy0ZHEoZc0PFzv-2" target="YhXr0Mxy0ZHEoZc0PFzv-0" edge="1">
          <mxGeometry width="50" height="50" relative="1" as="geometry">
            <mxPoint x="510" y="680" as="sourcePoint" />
            <mxPoint x="560" y="630" as="targetPoint" />
          </mxGeometry>
        </mxCell>
        <mxCell id="YhXr0Mxy0ZHEoZc0PFzv-6" value="" style="endArrow=classic;startArrow=classic;html=1;rounded=0;entryX=0.5;entryY=1;entryDx=0;entryDy=0;entryPerimeter=0;exitX=0.257;exitY=0.05;exitDx=0;exitDy=0;exitPerimeter=0;" parent="1CypIrtETw59KLQYTkcJ-1" source="YhXr0Mxy0ZHEoZc0PFzv-2" target="1CypIrtETw59KLQYTkcJ-16" edge="1">
          <mxGeometry width="50" height="50" relative="1" as="geometry">
            <mxPoint x="510" y="680" as="sourcePoint" />
            <mxPoint x="560" y="630" as="targetPoint" />
          </mxGeometry>
        </mxCell>
        <mxCell id="YhXr0Mxy0ZHEoZc0PFzv-7" value="shard2-2" style="shape=cylinder3;whiteSpace=wrap;html=1;boundedLbl=1;backgroundOutline=1;size=15;" parent="1CypIrtETw59KLQYTkcJ-1" vertex="1">
          <mxGeometry x="540" y="670" width="70" height="60" as="geometry" />
        </mxCell>
        <mxCell id="YhXr0Mxy0ZHEoZc0PFzv-8" value="shard2-2" style="shape=cylinder3;whiteSpace=wrap;html=1;boundedLbl=1;backgroundOutline=1;size=15;" parent="1CypIrtETw59KLQYTkcJ-1" vertex="1">
          <mxGeometry x="490" y="750" width="70" height="60" as="geometry" />
        </mxCell>
        <mxCell id="YhXr0Mxy0ZHEoZc0PFzv-9" value="" style="endArrow=classic;startArrow=classic;html=1;rounded=0;exitX=0.855;exitY=1;exitDx=0;exitDy=-4.35;exitPerimeter=0;" parent="1CypIrtETw59KLQYTkcJ-1" source="1CypIrtETw59KLQYTkcJ-20" target="YhXr0Mxy0ZHEoZc0PFzv-8" edge="1">
          <mxGeometry width="50" height="50" relative="1" as="geometry">
            <mxPoint x="510" y="680" as="sourcePoint" />
            <mxPoint x="560" y="630" as="targetPoint" />
          </mxGeometry>
        </mxCell>
        <mxCell id="YhXr0Mxy0ZHEoZc0PFzv-10" value="" style="endArrow=classic;startArrow=classic;html=1;rounded=0;entryX=1;entryY=0;entryDx=0;entryDy=23.25;entryPerimeter=0;exitX=0;exitY=0.5;exitDx=0;exitDy=0;exitPerimeter=0;" parent="1CypIrtETw59KLQYTkcJ-1" source="YhXr0Mxy0ZHEoZc0PFzv-7" target="1CypIrtETw59KLQYTkcJ-20" edge="1">
          <mxGeometry width="50" height="50" relative="1" as="geometry">
            <mxPoint x="510" y="680" as="sourcePoint" />
            <mxPoint x="560" y="630" as="targetPoint" />
          </mxGeometry>
        </mxCell>
        <mxCell id="YhXr0Mxy0ZHEoZc0PFzv-11" value="" style="endArrow=classic;startArrow=classic;html=1;rounded=0;exitX=1;exitY=0;exitDx=0;exitDy=22.5;exitPerimeter=0;entryX=0.5;entryY=1;entryDx=0;entryDy=0;entryPerimeter=0;" parent="1CypIrtETw59KLQYTkcJ-1" source="YhXr0Mxy0ZHEoZc0PFzv-8" target="YhXr0Mxy0ZHEoZc0PFzv-7" edge="1">
          <mxGeometry width="50" height="50" relative="1" as="geometry">
            <mxPoint x="510" y="680" as="sourcePoint" />
            <mxPoint x="560" y="630" as="targetPoint" />
          </mxGeometry>
        </mxCell>
        <mxCell id="V2xaUMFdhC8ZlMQ0Vmqs-0" value="MongoDB Роутер2" style="shape=cylinder3;whiteSpace=wrap;html=1;boundedLbl=1;backgroundOutline=1;size=15;" vertex="1" parent="1CypIrtETw59KLQYTkcJ-1">
          <mxGeometry x="220" y="380" width="110" height="80" as="geometry" />
        </mxCell>
      </root>
    </mxGraphModel>
  </diagram>
  <diagram name="Схема 3" id="xJ4lpqUywNtv-aapAQ_p">
    <mxGraphModel dx="1313" dy="706" grid="1" gridSize="10" guides="1" tooltips="1" connect="1" arrows="1" fold="1" page="1" pageScale="1" pageWidth="1169" pageHeight="827" math="0" shadow="0">
      <root>
        <mxCell id="Qc0hehzS4R7Rahu_wXjr-0" />
        <mxCell id="Qc0hehzS4R7Rahu_wXjr-1" parent="Qc0hehzS4R7Rahu_wXjr-0" />
        <mxCell id="Qc0hehzS4R7Rahu_wXjr-2" value="" style="whiteSpace=wrap;html=1;aspect=fixed;" parent="Qc0hehzS4R7Rahu_wXjr-1" vertex="1">
          <mxGeometry x="720" y="50" width="270" height="270" as="geometry" />
        </mxCell>
        <mxCell id="Qc0hehzS4R7Rahu_wXjr-3" value="MongoDB Роутер1" style="shape=cylinder3;whiteSpace=wrap;html=1;boundedLbl=1;backgroundOutline=1;size=15;" parent="Qc0hehzS4R7Rahu_wXjr-1" vertex="1">
          <mxGeometry x="250" y="365" width="110" height="80" as="geometry" />
        </mxCell>
        <mxCell id="Qc0hehzS4R7Rahu_wXjr-4" value="pymongo-api" style="rounded=1;whiteSpace=wrap;html=1;" parent="Qc0hehzS4R7Rahu_wXjr-1" vertex="1">
          <mxGeometry x="30" y="330" width="120" height="60" as="geometry" />
        </mxCell>
        <mxCell id="Qc0hehzS4R7Rahu_wXjr-5" style="edgeStyle=orthogonalEdgeStyle;rounded=0;orthogonalLoop=1;jettySize=auto;html=1;exitX=1;exitY=0.5;exitDx=0;exitDy=0;entryX=0;entryY=0.5;entryDx=0;entryDy=0;entryPerimeter=0;" parent="Qc0hehzS4R7Rahu_wXjr-1" source="Qc0hehzS4R7Rahu_wXjr-4" target="Qc0hehzS4R7Rahu_wXjr-3" edge="1">
          <mxGeometry relative="1" as="geometry" />
        </mxCell>
        <mxCell id="Qc0hehzS4R7Rahu_wXjr-6" value="cfgSrv1" style="shape=cylinder3;whiteSpace=wrap;html=1;boundedLbl=1;backgroundOutline=1;size=15;" parent="Qc0hehzS4R7Rahu_wXjr-1" vertex="1">
          <mxGeometry x="790" y="90" width="60" height="80" as="geometry" />
        </mxCell>
        <mxCell id="Qc0hehzS4R7Rahu_wXjr-7" value="cfgSrv2" style="shape=cylinder3;whiteSpace=wrap;html=1;boundedLbl=1;backgroundOutline=1;size=15;" parent="Qc0hehzS4R7Rahu_wXjr-1" vertex="1">
          <mxGeometry x="870" y="190" width="60" height="80" as="geometry" />
        </mxCell>
        <mxCell id="Qc0hehzS4R7Rahu_wXjr-8" value="cfgSrv2" style="shape=cylinder3;whiteSpace=wrap;html=1;boundedLbl=1;backgroundOutline=1;size=15;" parent="Qc0hehzS4R7Rahu_wXjr-1" vertex="1">
          <mxGeometry x="760" y="200" width="60" height="80" as="geometry" />
        </mxCell>
        <mxCell id="Qc0hehzS4R7Rahu_wXjr-9" value="" style="endArrow=classic;startArrow=classic;html=1;rounded=0;entryX=0.5;entryY=1;entryDx=0;entryDy=0;entryPerimeter=0;exitX=0.5;exitY=0;exitDx=0;exitDy=0;exitPerimeter=0;" parent="Qc0hehzS4R7Rahu_wXjr-1" source="Qc0hehzS4R7Rahu_wXjr-8" target="Qc0hehzS4R7Rahu_wXjr-6" edge="1">
          <mxGeometry width="50" height="50" relative="1" as="geometry">
            <mxPoint x="510" y="320" as="sourcePoint" />
            <mxPoint x="560" y="270" as="targetPoint" />
          </mxGeometry>
        </mxCell>
        <mxCell id="Qc0hehzS4R7Rahu_wXjr-10" value="" style="endArrow=classic;startArrow=classic;html=1;rounded=0;entryX=0;entryY=0.5;entryDx=0;entryDy=0;entryPerimeter=0;exitX=1;exitY=0.5;exitDx=0;exitDy=0;exitPerimeter=0;" parent="Qc0hehzS4R7Rahu_wXjr-1" source="Qc0hehzS4R7Rahu_wXjr-8" target="Qc0hehzS4R7Rahu_wXjr-7" edge="1">
          <mxGeometry width="50" height="50" relative="1" as="geometry">
            <mxPoint x="510" y="320" as="sourcePoint" />
            <mxPoint x="560" y="270" as="targetPoint" />
          </mxGeometry>
        </mxCell>
        <mxCell id="Qc0hehzS4R7Rahu_wXjr-11" value="" style="endArrow=classic;startArrow=classic;html=1;rounded=0;exitX=0.855;exitY=1;exitDx=0;exitDy=-4.35;exitPerimeter=0;entryX=0.5;entryY=0;entryDx=0;entryDy=0;entryPerimeter=0;" parent="Qc0hehzS4R7Rahu_wXjr-1" source="Qc0hehzS4R7Rahu_wXjr-6" target="Qc0hehzS4R7Rahu_wXjr-7" edge="1">
          <mxGeometry width="50" height="50" relative="1" as="geometry">
            <mxPoint x="530" y="170" as="sourcePoint" />
            <mxPoint x="560" y="270" as="targetPoint" />
          </mxGeometry>
        </mxCell>
        <mxCell id="Qc0hehzS4R7Rahu_wXjr-12" value="Конфигурационные сервера кластера MongoDB&lt;div&gt;&lt;br&gt;&lt;/div&gt;" style="text;html=1;align=center;verticalAlign=middle;whiteSpace=wrap;rounded=0;" parent="Qc0hehzS4R7Rahu_wXjr-1" vertex="1">
          <mxGeometry x="890" y="60" width="80" height="50" as="geometry" />
        </mxCell>
        <mxCell id="Qc0hehzS4R7Rahu_wXjr-13" value="" style="endArrow=classic;startArrow=classic;html=1;rounded=0;exitX=0.5;exitY=0;exitDx=0;exitDy=0;exitPerimeter=0;entryX=-0.007;entryY=0.556;entryDx=0;entryDy=0;entryPerimeter=0;" parent="Qc0hehzS4R7Rahu_wXjr-1" source="Qc0hehzS4R7Rahu_wXjr-3" target="Qc0hehzS4R7Rahu_wXjr-2" edge="1">
          <mxGeometry width="50" height="50" relative="1" as="geometry">
            <mxPoint x="510" y="320" as="sourcePoint" />
            <mxPoint x="560" y="270" as="targetPoint" />
          </mxGeometry>
        </mxCell>
        <mxCell id="Qc0hehzS4R7Rahu_wXjr-14" value="" style="rounded=0;whiteSpace=wrap;html=1;" parent="Qc0hehzS4R7Rahu_wXjr-1" vertex="1">
          <mxGeometry x="410" y="380" width="240" height="200" as="geometry" />
        </mxCell>
        <mxCell id="Qc0hehzS4R7Rahu_wXjr-15" value="MongoDB Шард 1" style="text;html=1;align=center;verticalAlign=middle;whiteSpace=wrap;rounded=0;" parent="Qc0hehzS4R7Rahu_wXjr-1" vertex="1">
          <mxGeometry x="510" y="390" width="120" height="30" as="geometry" />
        </mxCell>
        <mxCell id="Qc0hehzS4R7Rahu_wXjr-16" value="shard1-1" style="shape=cylinder3;whiteSpace=wrap;html=1;boundedLbl=1;backgroundOutline=1;size=15;" parent="Qc0hehzS4R7Rahu_wXjr-1" vertex="1">
          <mxGeometry x="450" y="430" width="70" height="60" as="geometry" />
        </mxCell>
        <mxCell id="Qc0hehzS4R7Rahu_wXjr-17" value="" style="endArrow=classic;startArrow=classic;html=1;rounded=0;entryX=1;entryY=0.5;entryDx=0;entryDy=0;entryPerimeter=0;" parent="Qc0hehzS4R7Rahu_wXjr-1" source="Qc0hehzS4R7Rahu_wXjr-14" target="Qc0hehzS4R7Rahu_wXjr-3" edge="1">
          <mxGeometry width="50" height="50" relative="1" as="geometry">
            <mxPoint x="510" y="470" as="sourcePoint" />
            <mxPoint x="560" y="420" as="targetPoint" />
          </mxGeometry>
        </mxCell>
        <mxCell id="Qc0hehzS4R7Rahu_wXjr-18" value="" style="rounded=0;whiteSpace=wrap;html=1;" parent="Qc0hehzS4R7Rahu_wXjr-1" vertex="1">
          <mxGeometry x="410" y="617" width="240" height="200" as="geometry" />
        </mxCell>
        <mxCell id="Qc0hehzS4R7Rahu_wXjr-19" value="MongoDB Шард 2" style="text;html=1;align=center;verticalAlign=middle;whiteSpace=wrap;rounded=0;" parent="Qc0hehzS4R7Rahu_wXjr-1" vertex="1">
          <mxGeometry x="510" y="627" width="120" height="30" as="geometry" />
        </mxCell>
        <mxCell id="Qc0hehzS4R7Rahu_wXjr-20" value="shard2-1" style="shape=cylinder3;whiteSpace=wrap;html=1;boundedLbl=1;backgroundOutline=1;size=15;" parent="Qc0hehzS4R7Rahu_wXjr-1" vertex="1">
          <mxGeometry x="440" y="670" width="70" height="63" as="geometry" />
        </mxCell>
        <mxCell id="Qc0hehzS4R7Rahu_wXjr-21" value="" style="endArrow=classic;startArrow=classic;html=1;rounded=0;entryX=1;entryY=0.5;entryDx=0;entryDy=0;entryPerimeter=0;exitX=0.007;exitY=0.328;exitDx=0;exitDy=0;exitPerimeter=0;" parent="Qc0hehzS4R7Rahu_wXjr-1" source="Qc0hehzS4R7Rahu_wXjr-18" target="Qc0hehzS4R7Rahu_wXjr-3" edge="1">
          <mxGeometry width="50" height="50" relative="1" as="geometry">
            <mxPoint x="510" y="670" as="sourcePoint" />
            <mxPoint x="560" y="620" as="targetPoint" />
          </mxGeometry>
        </mxCell>
        <mxCell id="Qc0hehzS4R7Rahu_wXjr-22" value="" style="endArrow=classic;startArrow=classic;html=1;rounded=0;entryX=0.5;entryY=1;entryDx=0;entryDy=0;exitX=1;exitY=0.5;exitDx=0;exitDy=0;" parent="Qc0hehzS4R7Rahu_wXjr-1" source="Qc0hehzS4R7Rahu_wXjr-14" target="Qc0hehzS4R7Rahu_wXjr-2" edge="1">
          <mxGeometry width="50" height="50" relative="1" as="geometry">
            <mxPoint x="510" y="450" as="sourcePoint" />
            <mxPoint x="560" y="400" as="targetPoint" />
          </mxGeometry>
        </mxCell>
        <mxCell id="Qc0hehzS4R7Rahu_wXjr-23" value="" style="endArrow=classic;startArrow=classic;html=1;rounded=0;entryX=0.5;entryY=1;entryDx=0;entryDy=0;exitX=0.987;exitY=0.36;exitDx=0;exitDy=0;exitPerimeter=0;" parent="Qc0hehzS4R7Rahu_wXjr-1" source="Qc0hehzS4R7Rahu_wXjr-18" target="Qc0hehzS4R7Rahu_wXjr-2" edge="1">
          <mxGeometry width="50" height="50" relative="1" as="geometry">
            <mxPoint x="510" y="450" as="sourcePoint" />
            <mxPoint x="560" y="400" as="targetPoint" />
          </mxGeometry>
        </mxCell>
        <mxCell id="Qc0hehzS4R7Rahu_wXjr-24" value="shard1-2" style="shape=cylinder3;whiteSpace=wrap;html=1;boundedLbl=1;backgroundOutline=1;size=15;" parent="Qc0hehzS4R7Rahu_wXjr-1" vertex="1">
          <mxGeometry x="560" y="430" width="70" height="60" as="geometry" />
        </mxCell>
        <mxCell id="Qc0hehzS4R7Rahu_wXjr-25" value="shard1-3" style="shape=cylinder3;whiteSpace=wrap;html=1;boundedLbl=1;backgroundOutline=1;size=15;" parent="Qc0hehzS4R7Rahu_wXjr-1" vertex="1">
          <mxGeometry x="500" y="510" width="70" height="60" as="geometry" />
        </mxCell>
        <mxCell id="Qc0hehzS4R7Rahu_wXjr-26" value="" style="endArrow=classic;startArrow=classic;html=1;rounded=0;entryX=0;entryY=0.5;entryDx=0;entryDy=0;entryPerimeter=0;exitX=1;exitY=0.5;exitDx=0;exitDy=0;exitPerimeter=0;" parent="Qc0hehzS4R7Rahu_wXjr-1" source="Qc0hehzS4R7Rahu_wXjr-16" target="Qc0hehzS4R7Rahu_wXjr-24" edge="1">
          <mxGeometry width="50" height="50" relative="1" as="geometry">
            <mxPoint x="510" y="680" as="sourcePoint" />
            <mxPoint x="560" y="630" as="targetPoint" />
          </mxGeometry>
        </mxCell>
        <mxCell id="Qc0hehzS4R7Rahu_wXjr-27" value="" style="endArrow=classic;startArrow=classic;html=1;rounded=0;entryX=0.5;entryY=1;entryDx=0;entryDy=0;entryPerimeter=0;exitX=0.855;exitY=0;exitDx=0;exitDy=4.35;exitPerimeter=0;" parent="Qc0hehzS4R7Rahu_wXjr-1" source="Qc0hehzS4R7Rahu_wXjr-25" target="Qc0hehzS4R7Rahu_wXjr-24" edge="1">
          <mxGeometry width="50" height="50" relative="1" as="geometry">
            <mxPoint x="510" y="680" as="sourcePoint" />
            <mxPoint x="560" y="630" as="targetPoint" />
          </mxGeometry>
        </mxCell>
        <mxCell id="Qc0hehzS4R7Rahu_wXjr-28" value="" style="endArrow=classic;startArrow=classic;html=1;rounded=0;entryX=0.5;entryY=1;entryDx=0;entryDy=0;entryPerimeter=0;exitX=0.257;exitY=0.05;exitDx=0;exitDy=0;exitPerimeter=0;" parent="Qc0hehzS4R7Rahu_wXjr-1" source="Qc0hehzS4R7Rahu_wXjr-25" target="Qc0hehzS4R7Rahu_wXjr-16" edge="1">
          <mxGeometry width="50" height="50" relative="1" as="geometry">
            <mxPoint x="510" y="680" as="sourcePoint" />
            <mxPoint x="560" y="630" as="targetPoint" />
          </mxGeometry>
        </mxCell>
        <mxCell id="Qc0hehzS4R7Rahu_wXjr-29" value="shard2-2" style="shape=cylinder3;whiteSpace=wrap;html=1;boundedLbl=1;backgroundOutline=1;size=15;" parent="Qc0hehzS4R7Rahu_wXjr-1" vertex="1">
          <mxGeometry x="540" y="670" width="70" height="60" as="geometry" />
        </mxCell>
        <mxCell id="Qc0hehzS4R7Rahu_wXjr-30" value="shard2-2" style="shape=cylinder3;whiteSpace=wrap;html=1;boundedLbl=1;backgroundOutline=1;size=15;" parent="Qc0hehzS4R7Rahu_wXjr-1" vertex="1">
          <mxGeometry x="490" y="750" width="70" height="60" as="geometry" />
        </mxCell>
        <mxCell id="Qc0hehzS4R7Rahu_wXjr-31" value="" style="endArrow=classic;startArrow=classic;html=1;rounded=0;exitX=0.855;exitY=1;exitDx=0;exitDy=-4.35;exitPerimeter=0;" parent="Qc0hehzS4R7Rahu_wXjr-1" source="Qc0hehzS4R7Rahu_wXjr-20" target="Qc0hehzS4R7Rahu_wXjr-30" edge="1">
          <mxGeometry width="50" height="50" relative="1" as="geometry">
            <mxPoint x="510" y="680" as="sourcePoint" />
            <mxPoint x="560" y="630" as="targetPoint" />
          </mxGeometry>
        </mxCell>
        <mxCell id="Qc0hehzS4R7Rahu_wXjr-32" value="" style="endArrow=classic;startArrow=classic;html=1;rounded=0;entryX=1;entryY=0;entryDx=0;entryDy=23.25;entryPerimeter=0;exitX=0;exitY=0.5;exitDx=0;exitDy=0;exitPerimeter=0;" parent="Qc0hehzS4R7Rahu_wXjr-1" source="Qc0hehzS4R7Rahu_wXjr-29" target="Qc0hehzS4R7Rahu_wXjr-20" edge="1">
          <mxGeometry width="50" height="50" relative="1" as="geometry">
            <mxPoint x="510" y="680" as="sourcePoint" />
            <mxPoint x="560" y="630" as="targetPoint" />
          </mxGeometry>
        </mxCell>
        <mxCell id="Qc0hehzS4R7Rahu_wXjr-33" value="" style="endArrow=classic;startArrow=classic;html=1;rounded=0;exitX=1;exitY=0;exitDx=0;exitDy=22.5;exitPerimeter=0;entryX=0.5;entryY=1;entryDx=0;entryDy=0;entryPerimeter=0;" parent="Qc0hehzS4R7Rahu_wXjr-1" source="Qc0hehzS4R7Rahu_wXjr-30" target="Qc0hehzS4R7Rahu_wXjr-29" edge="1">
          <mxGeometry width="50" height="50" relative="1" as="geometry">
            <mxPoint x="510" y="680" as="sourcePoint" />
            <mxPoint x="560" y="630" as="targetPoint" />
          </mxGeometry>
        </mxCell>
        <mxCell id="BmqBtRlyf-oE5Fl2se1M-0" value="" style="rounded=0;whiteSpace=wrap;html=1;" parent="Qc0hehzS4R7Rahu_wXjr-1" vertex="1">
          <mxGeometry x="130" y="30" width="360" height="240" as="geometry" />
        </mxCell>
        <mxCell id="BmqBtRlyf-oE5Fl2se1M-1" value="Кластер Redis" style="text;html=1;align=center;verticalAlign=middle;whiteSpace=wrap;rounded=0;" parent="Qc0hehzS4R7Rahu_wXjr-1" vertex="1">
          <mxGeometry x="400" y="30" width="90" height="30" as="geometry" />
        </mxCell>
        <mxCell id="BmqBtRlyf-oE5Fl2se1M-2" value="redis_1" style="shape=cylinder3;whiteSpace=wrap;html=1;boundedLbl=1;backgroundOutline=1;size=15;" parent="Qc0hehzS4R7Rahu_wXjr-1" vertex="1">
          <mxGeometry x="170" y="50" width="60" height="50" as="geometry" />
        </mxCell>
        <mxCell id="BmqBtRlyf-oE5Fl2se1M-3" value="redis_2" style="shape=cylinder3;whiteSpace=wrap;html=1;boundedLbl=1;backgroundOutline=1;size=15;" parent="Qc0hehzS4R7Rahu_wXjr-1" vertex="1">
          <mxGeometry x="310" y="50" width="60" height="50" as="geometry" />
        </mxCell>
        <mxCell id="BmqBtRlyf-oE5Fl2se1M-4" value="redis_3" style="shape=cylinder3;whiteSpace=wrap;html=1;boundedLbl=1;backgroundOutline=1;size=15;" parent="Qc0hehzS4R7Rahu_wXjr-1" vertex="1">
          <mxGeometry x="170" y="130" width="60" height="50" as="geometry" />
        </mxCell>
        <mxCell id="BmqBtRlyf-oE5Fl2se1M-5" value="redis_4" style="shape=cylinder3;whiteSpace=wrap;html=1;boundedLbl=1;backgroundOutline=1;size=15;" parent="Qc0hehzS4R7Rahu_wXjr-1" vertex="1">
          <mxGeometry x="310" y="130" width="60" height="50" as="geometry" />
        </mxCell>
        <mxCell id="BmqBtRlyf-oE5Fl2se1M-6" value="redis_5" style="shape=cylinder3;whiteSpace=wrap;html=1;boundedLbl=1;backgroundOutline=1;size=15;" parent="Qc0hehzS4R7Rahu_wXjr-1" vertex="1">
          <mxGeometry x="170" y="200" width="60" height="50" as="geometry" />
        </mxCell>
        <mxCell id="BmqBtRlyf-oE5Fl2se1M-7" value="redis_6" style="shape=cylinder3;whiteSpace=wrap;html=1;boundedLbl=1;backgroundOutline=1;size=15;" parent="Qc0hehzS4R7Rahu_wXjr-1" vertex="1">
          <mxGeometry x="310" y="200" width="60" height="50" as="geometry" />
        </mxCell>
        <mxCell id="BmqBtRlyf-oE5Fl2se1M-8" value="" style="endArrow=classic;startArrow=classic;html=1;rounded=0;entryX=0;entryY=0;entryDx=0;entryDy=30;entryPerimeter=0;exitX=1;exitY=0.5;exitDx=0;exitDy=0;exitPerimeter=0;" parent="Qc0hehzS4R7Rahu_wXjr-1" source="BmqBtRlyf-oE5Fl2se1M-2" target="BmqBtRlyf-oE5Fl2se1M-3" edge="1">
          <mxGeometry width="50" height="50" relative="1" as="geometry">
            <mxPoint x="360" y="320" as="sourcePoint" />
            <mxPoint x="420" y="300" as="targetPoint" />
          </mxGeometry>
        </mxCell>
        <mxCell id="BmqBtRlyf-oE5Fl2se1M-9" value="" style="endArrow=classic;startArrow=classic;html=1;rounded=0;exitX=1;exitY=0.5;exitDx=0;exitDy=0;exitPerimeter=0;" parent="Qc0hehzS4R7Rahu_wXjr-1" source="BmqBtRlyf-oE5Fl2se1M-2" edge="1">
          <mxGeometry width="50" height="50" relative="1" as="geometry">
            <mxPoint x="360" y="320" as="sourcePoint" />
            <mxPoint x="310" y="160" as="targetPoint" />
          </mxGeometry>
        </mxCell>
        <mxCell id="BmqBtRlyf-oE5Fl2se1M-10" value="" style="endArrow=classic;startArrow=classic;html=1;rounded=0;entryX=1;entryY=0;entryDx=0;entryDy=30;entryPerimeter=0;exitX=0;exitY=0.5;exitDx=0;exitDy=0;exitPerimeter=0;" parent="Qc0hehzS4R7Rahu_wXjr-1" source="BmqBtRlyf-oE5Fl2se1M-7" target="BmqBtRlyf-oE5Fl2se1M-2" edge="1">
          <mxGeometry width="50" height="50" relative="1" as="geometry">
            <mxPoint x="360" y="320" as="sourcePoint" />
            <mxPoint x="410" y="270" as="targetPoint" />
          </mxGeometry>
        </mxCell>
        <mxCell id="BmqBtRlyf-oE5Fl2se1M-11" value="" style="endArrow=classic;startArrow=classic;html=1;rounded=0;exitX=1;exitY=0.5;exitDx=0;exitDy=0;exitPerimeter=0;" parent="Qc0hehzS4R7Rahu_wXjr-1" source="BmqBtRlyf-oE5Fl2se1M-4" edge="1">
          <mxGeometry width="50" height="50" relative="1" as="geometry">
            <mxPoint x="360" y="320" as="sourcePoint" />
            <mxPoint x="310" y="80" as="targetPoint" />
          </mxGeometry>
        </mxCell>
        <mxCell id="BmqBtRlyf-oE5Fl2se1M-12" value="" style="endArrow=classic;startArrow=classic;html=1;rounded=0;entryX=0;entryY=0;entryDx=0;entryDy=30;entryPerimeter=0;exitX=1;exitY=0;exitDx=0;exitDy=20;exitPerimeter=0;" parent="Qc0hehzS4R7Rahu_wXjr-1" source="BmqBtRlyf-oE5Fl2se1M-4" target="BmqBtRlyf-oE5Fl2se1M-5" edge="1">
          <mxGeometry width="50" height="50" relative="1" as="geometry">
            <mxPoint x="310" y="330" as="sourcePoint" />
            <mxPoint x="410" y="270" as="targetPoint" />
          </mxGeometry>
        </mxCell>
        <mxCell id="BmqBtRlyf-oE5Fl2se1M-13" value="" style="endArrow=classic;startArrow=classic;html=1;rounded=0;entryX=0;entryY=0;entryDx=0;entryDy=30;entryPerimeter=0;exitX=1;exitY=0.5;exitDx=0;exitDy=0;exitPerimeter=0;" parent="Qc0hehzS4R7Rahu_wXjr-1" source="BmqBtRlyf-oE5Fl2se1M-4" target="BmqBtRlyf-oE5Fl2se1M-7" edge="1">
          <mxGeometry width="50" height="50" relative="1" as="geometry">
            <mxPoint x="360" y="320" as="sourcePoint" />
            <mxPoint x="410" y="270" as="targetPoint" />
          </mxGeometry>
        </mxCell>
        <mxCell id="BmqBtRlyf-oE5Fl2se1M-14" value="" style="endArrow=classic;startArrow=classic;html=1;rounded=0;exitX=1;exitY=0;exitDx=0;exitDy=20;exitPerimeter=0;entryX=0;entryY=1;entryDx=0;entryDy=-15;entryPerimeter=0;" parent="Qc0hehzS4R7Rahu_wXjr-1" source="BmqBtRlyf-oE5Fl2se1M-6" target="BmqBtRlyf-oE5Fl2se1M-3" edge="1">
          <mxGeometry width="50" height="50" relative="1" as="geometry">
            <mxPoint x="360" y="320" as="sourcePoint" />
            <mxPoint x="410" y="270" as="targetPoint" />
          </mxGeometry>
        </mxCell>
        <mxCell id="BmqBtRlyf-oE5Fl2se1M-15" value="" style="endArrow=classic;startArrow=classic;html=1;rounded=0;exitX=1;exitY=0;exitDx=0;exitDy=15;exitPerimeter=0;" parent="Qc0hehzS4R7Rahu_wXjr-1" source="BmqBtRlyf-oE5Fl2se1M-6" edge="1">
          <mxGeometry width="50" height="50" relative="1" as="geometry">
            <mxPoint x="360" y="320" as="sourcePoint" />
            <mxPoint x="310" y="160" as="targetPoint" />
          </mxGeometry>
        </mxCell>
        <mxCell id="BmqBtRlyf-oE5Fl2se1M-16" value="" style="endArrow=classic;startArrow=classic;html=1;rounded=0;entryX=0;entryY=0.5;entryDx=0;entryDy=0;entryPerimeter=0;exitX=1;exitY=0;exitDx=0;exitDy=15;exitPerimeter=0;" parent="Qc0hehzS4R7Rahu_wXjr-1" source="BmqBtRlyf-oE5Fl2se1M-6" target="BmqBtRlyf-oE5Fl2se1M-7" edge="1">
          <mxGeometry width="50" height="50" relative="1" as="geometry">
            <mxPoint x="360" y="320" as="sourcePoint" />
            <mxPoint x="410" y="270" as="targetPoint" />
          </mxGeometry>
        </mxCell>
        <mxCell id="BmqBtRlyf-oE5Fl2se1M-17" value="" style="endArrow=classic;startArrow=classic;html=1;rounded=0;exitX=1;exitY=0;exitDx=0;exitDy=0;entryX=0.336;entryY=1.003;entryDx=0;entryDy=0;entryPerimeter=0;" parent="Qc0hehzS4R7Rahu_wXjr-1" source="Qc0hehzS4R7Rahu_wXjr-4" target="BmqBtRlyf-oE5Fl2se1M-0" edge="1">
          <mxGeometry width="50" height="50" relative="1" as="geometry">
            <mxPoint x="360" y="320" as="sourcePoint" />
            <mxPoint x="410" y="270" as="targetPoint" />
          </mxGeometry>
        </mxCell>
        <mxCell id="aBOJarwQ5qFoajCpquCQ-0" value="MongoDB Роутер2" style="shape=cylinder3;whiteSpace=wrap;html=1;boundedLbl=1;backgroundOutline=1;size=15;" vertex="1" parent="Qc0hehzS4R7Rahu_wXjr-1">
          <mxGeometry x="250" y="430" width="110" height="80" as="geometry" />
        </mxCell>
      </root>
    </mxGraphModel>
  </diagram>
  <diagram name="Схема 4" id="F1pMfo2WlcfmwbH7NYmd">
    <mxGraphModel dx="2100" dy="1130" grid="1" gridSize="10" guides="1" tooltips="1" connect="1" arrows="1" fold="1" page="1" pageScale="1" pageWidth="1169" pageHeight="827" math="0" shadow="0">
      <root>
        <mxCell id="IMZCJYsMuuAbVvXx1TJ9-0" />
        <mxCell id="IMZCJYsMuuAbVvXx1TJ9-1" parent="IMZCJYsMuuAbVvXx1TJ9-0" />
        <mxCell id="IMZCJYsMuuAbVvXx1TJ9-2" value="" style="whiteSpace=wrap;html=1;aspect=fixed;" vertex="1" parent="IMZCJYsMuuAbVvXx1TJ9-1">
          <mxGeometry x="880" y="20" width="270" height="270" as="geometry" />
        </mxCell>
        <mxCell id="IMZCJYsMuuAbVvXx1TJ9-3" value="MongoDB Роутер1" style="shape=cylinder3;whiteSpace=wrap;html=1;boundedLbl=1;backgroundOutline=1;size=15;" vertex="1" parent="IMZCJYsMuuAbVvXx1TJ9-1">
          <mxGeometry x="630" y="470" width="110" height="80" as="geometry" />
        </mxCell>
        <mxCell id="IMZCJYsMuuAbVvXx1TJ9-4" value="pymongo-api" style="rounded=1;whiteSpace=wrap;html=1;" vertex="1" parent="IMZCJYsMuuAbVvXx1TJ9-1">
          <mxGeometry x="420" y="440" width="120" height="60" as="geometry" />
        </mxCell>
        <mxCell id="IMZCJYsMuuAbVvXx1TJ9-5" style="edgeStyle=orthogonalEdgeStyle;rounded=0;orthogonalLoop=1;jettySize=auto;html=1;exitX=1;exitY=0.5;exitDx=0;exitDy=0;entryX=0;entryY=0.5;entryDx=0;entryDy=0;entryPerimeter=0;" edge="1" parent="IMZCJYsMuuAbVvXx1TJ9-1" source="IMZCJYsMuuAbVvXx1TJ9-4" target="IMZCJYsMuuAbVvXx1TJ9-3">
          <mxGeometry relative="1" as="geometry" />
        </mxCell>
        <mxCell id="IMZCJYsMuuAbVvXx1TJ9-6" value="cfgSrv1" style="shape=cylinder3;whiteSpace=wrap;html=1;boundedLbl=1;backgroundOutline=1;size=15;" vertex="1" parent="IMZCJYsMuuAbVvXx1TJ9-1">
          <mxGeometry x="950" y="60" width="60" height="80" as="geometry" />
        </mxCell>
        <mxCell id="IMZCJYsMuuAbVvXx1TJ9-7" value="cfgSrv2" style="shape=cylinder3;whiteSpace=wrap;html=1;boundedLbl=1;backgroundOutline=1;size=15;" vertex="1" parent="IMZCJYsMuuAbVvXx1TJ9-1">
          <mxGeometry x="1030" y="160" width="60" height="80" as="geometry" />
        </mxCell>
        <mxCell id="IMZCJYsMuuAbVvXx1TJ9-8" value="cfgSrv2" style="shape=cylinder3;whiteSpace=wrap;html=1;boundedLbl=1;backgroundOutline=1;size=15;" vertex="1" parent="IMZCJYsMuuAbVvXx1TJ9-1">
          <mxGeometry x="920" y="170" width="60" height="80" as="geometry" />
        </mxCell>
        <mxCell id="IMZCJYsMuuAbVvXx1TJ9-9" value="" style="endArrow=classic;startArrow=classic;html=1;rounded=0;entryX=0.5;entryY=1;entryDx=0;entryDy=0;entryPerimeter=0;exitX=0.5;exitY=0;exitDx=0;exitDy=0;exitPerimeter=0;" edge="1" parent="IMZCJYsMuuAbVvXx1TJ9-1" source="IMZCJYsMuuAbVvXx1TJ9-8" target="IMZCJYsMuuAbVvXx1TJ9-6">
          <mxGeometry width="50" height="50" relative="1" as="geometry">
            <mxPoint x="670" y="290" as="sourcePoint" />
            <mxPoint x="720" y="240" as="targetPoint" />
          </mxGeometry>
        </mxCell>
        <mxCell id="IMZCJYsMuuAbVvXx1TJ9-10" value="" style="endArrow=classic;startArrow=classic;html=1;rounded=0;entryX=0;entryY=0.5;entryDx=0;entryDy=0;entryPerimeter=0;exitX=1;exitY=0.5;exitDx=0;exitDy=0;exitPerimeter=0;" edge="1" parent="IMZCJYsMuuAbVvXx1TJ9-1" source="IMZCJYsMuuAbVvXx1TJ9-8" target="IMZCJYsMuuAbVvXx1TJ9-7">
          <mxGeometry width="50" height="50" relative="1" as="geometry">
            <mxPoint x="670" y="290" as="sourcePoint" />
            <mxPoint x="720" y="240" as="targetPoint" />
          </mxGeometry>
        </mxCell>
        <mxCell id="IMZCJYsMuuAbVvXx1TJ9-11" value="" style="endArrow=classic;startArrow=classic;html=1;rounded=0;exitX=0.855;exitY=1;exitDx=0;exitDy=-4.35;exitPerimeter=0;entryX=0.5;entryY=0;entryDx=0;entryDy=0;entryPerimeter=0;" edge="1" parent="IMZCJYsMuuAbVvXx1TJ9-1" source="IMZCJYsMuuAbVvXx1TJ9-6" target="IMZCJYsMuuAbVvXx1TJ9-7">
          <mxGeometry width="50" height="50" relative="1" as="geometry">
            <mxPoint x="690" y="140" as="sourcePoint" />
            <mxPoint x="720" y="240" as="targetPoint" />
          </mxGeometry>
        </mxCell>
        <mxCell id="IMZCJYsMuuAbVvXx1TJ9-12" value="Конфигурационные сервера кластера MongoDB&lt;div&gt;&lt;br&gt;&lt;/div&gt;" style="text;html=1;align=center;verticalAlign=middle;whiteSpace=wrap;rounded=0;" vertex="1" parent="IMZCJYsMuuAbVvXx1TJ9-1">
          <mxGeometry x="1050" y="30" width="80" height="50" as="geometry" />
        </mxCell>
        <mxCell id="IMZCJYsMuuAbVvXx1TJ9-13" value="" style="endArrow=classic;startArrow=classic;html=1;rounded=0;exitX=0.5;exitY=0;exitDx=0;exitDy=0;exitPerimeter=0;entryX=-0.007;entryY=0.556;entryDx=0;entryDy=0;entryPerimeter=0;" edge="1" parent="IMZCJYsMuuAbVvXx1TJ9-1" source="IMZCJYsMuuAbVvXx1TJ9-3" target="IMZCJYsMuuAbVvXx1TJ9-2">
          <mxGeometry width="50" height="50" relative="1" as="geometry">
            <mxPoint x="510" y="320" as="sourcePoint" />
            <mxPoint x="560" y="270" as="targetPoint" />
          </mxGeometry>
        </mxCell>
        <mxCell id="IMZCJYsMuuAbVvXx1TJ9-14" value="" style="rounded=0;whiteSpace=wrap;html=1;" vertex="1" parent="IMZCJYsMuuAbVvXx1TJ9-1">
          <mxGeometry x="830" y="390" width="240" height="200" as="geometry" />
        </mxCell>
        <mxCell id="IMZCJYsMuuAbVvXx1TJ9-15" value="MongoDB Шард 1" style="text;html=1;align=center;verticalAlign=middle;whiteSpace=wrap;rounded=0;" vertex="1" parent="IMZCJYsMuuAbVvXx1TJ9-1">
          <mxGeometry x="930" y="400" width="120" height="30" as="geometry" />
        </mxCell>
        <mxCell id="IMZCJYsMuuAbVvXx1TJ9-16" value="shard1-1" style="shape=cylinder3;whiteSpace=wrap;html=1;boundedLbl=1;backgroundOutline=1;size=15;" vertex="1" parent="IMZCJYsMuuAbVvXx1TJ9-1">
          <mxGeometry x="870" y="440" width="70" height="60" as="geometry" />
        </mxCell>
        <mxCell id="IMZCJYsMuuAbVvXx1TJ9-17" value="" style="endArrow=classic;startArrow=classic;html=1;rounded=0;entryX=1;entryY=0.5;entryDx=0;entryDy=0;entryPerimeter=0;" edge="1" parent="IMZCJYsMuuAbVvXx1TJ9-1" source="IMZCJYsMuuAbVvXx1TJ9-14" target="IMZCJYsMuuAbVvXx1TJ9-3">
          <mxGeometry width="50" height="50" relative="1" as="geometry">
            <mxPoint x="510" y="470" as="sourcePoint" />
            <mxPoint x="560" y="420" as="targetPoint" />
          </mxGeometry>
        </mxCell>
        <mxCell id="IMZCJYsMuuAbVvXx1TJ9-18" value="" style="rounded=0;whiteSpace=wrap;html=1;" vertex="1" parent="IMZCJYsMuuAbVvXx1TJ9-1">
          <mxGeometry x="835" y="610" width="240" height="200" as="geometry" />
        </mxCell>
        <mxCell id="IMZCJYsMuuAbVvXx1TJ9-19" value="MongoDB Шард 2" style="text;html=1;align=center;verticalAlign=middle;whiteSpace=wrap;rounded=0;" vertex="1" parent="IMZCJYsMuuAbVvXx1TJ9-1">
          <mxGeometry x="935" y="620" width="120" height="30" as="geometry" />
        </mxCell>
        <mxCell id="IMZCJYsMuuAbVvXx1TJ9-20" value="shard2-1" style="shape=cylinder3;whiteSpace=wrap;html=1;boundedLbl=1;backgroundOutline=1;size=15;" vertex="1" parent="IMZCJYsMuuAbVvXx1TJ9-1">
          <mxGeometry x="865" y="663" width="70" height="63" as="geometry" />
        </mxCell>
        <mxCell id="IMZCJYsMuuAbVvXx1TJ9-21" value="" style="endArrow=classic;startArrow=classic;html=1;rounded=0;entryX=1;entryY=0.5;entryDx=0;entryDy=0;entryPerimeter=0;exitX=0.007;exitY=0.328;exitDx=0;exitDy=0;exitPerimeter=0;" edge="1" parent="IMZCJYsMuuAbVvXx1TJ9-1" source="IMZCJYsMuuAbVvXx1TJ9-18" target="IMZCJYsMuuAbVvXx1TJ9-3">
          <mxGeometry width="50" height="50" relative="1" as="geometry">
            <mxPoint x="510" y="670" as="sourcePoint" />
            <mxPoint x="560" y="620" as="targetPoint" />
          </mxGeometry>
        </mxCell>
        <mxCell id="IMZCJYsMuuAbVvXx1TJ9-24" value="shard1-2" style="shape=cylinder3;whiteSpace=wrap;html=1;boundedLbl=1;backgroundOutline=1;size=15;" vertex="1" parent="IMZCJYsMuuAbVvXx1TJ9-1">
          <mxGeometry x="980" y="440" width="70" height="60" as="geometry" />
        </mxCell>
        <mxCell id="IMZCJYsMuuAbVvXx1TJ9-25" value="shard1-3" style="shape=cylinder3;whiteSpace=wrap;html=1;boundedLbl=1;backgroundOutline=1;size=15;" vertex="1" parent="IMZCJYsMuuAbVvXx1TJ9-1">
          <mxGeometry x="920" y="520" width="70" height="60" as="geometry" />
        </mxCell>
        <mxCell id="IMZCJYsMuuAbVvXx1TJ9-26" value="" style="endArrow=classic;startArrow=classic;html=1;rounded=0;entryX=0;entryY=0.5;entryDx=0;entryDy=0;entryPerimeter=0;exitX=1;exitY=0.5;exitDx=0;exitDy=0;exitPerimeter=0;" edge="1" parent="IMZCJYsMuuAbVvXx1TJ9-1" source="IMZCJYsMuuAbVvXx1TJ9-16" target="IMZCJYsMuuAbVvXx1TJ9-24">
          <mxGeometry width="50" height="50" relative="1" as="geometry">
            <mxPoint x="930" y="690" as="sourcePoint" />
            <mxPoint x="980" y="640" as="targetPoint" />
          </mxGeometry>
        </mxCell>
        <mxCell id="IMZCJYsMuuAbVvXx1TJ9-27" value="" style="endArrow=classic;startArrow=classic;html=1;rounded=0;entryX=0.5;entryY=1;entryDx=0;entryDy=0;entryPerimeter=0;exitX=0.855;exitY=0;exitDx=0;exitDy=4.35;exitPerimeter=0;" edge="1" parent="IMZCJYsMuuAbVvXx1TJ9-1" source="IMZCJYsMuuAbVvXx1TJ9-25" target="IMZCJYsMuuAbVvXx1TJ9-24">
          <mxGeometry width="50" height="50" relative="1" as="geometry">
            <mxPoint x="930" y="690" as="sourcePoint" />
            <mxPoint x="980" y="640" as="targetPoint" />
          </mxGeometry>
        </mxCell>
        <mxCell id="IMZCJYsMuuAbVvXx1TJ9-28" value="" style="endArrow=classic;startArrow=classic;html=1;rounded=0;entryX=0.5;entryY=1;entryDx=0;entryDy=0;entryPerimeter=0;exitX=0.257;exitY=0.05;exitDx=0;exitDy=0;exitPerimeter=0;" edge="1" parent="IMZCJYsMuuAbVvXx1TJ9-1" source="IMZCJYsMuuAbVvXx1TJ9-25" target="IMZCJYsMuuAbVvXx1TJ9-16">
          <mxGeometry width="50" height="50" relative="1" as="geometry">
            <mxPoint x="930" y="690" as="sourcePoint" />
            <mxPoint x="980" y="640" as="targetPoint" />
          </mxGeometry>
        </mxCell>
        <mxCell id="IMZCJYsMuuAbVvXx1TJ9-29" value="shard2-2" style="shape=cylinder3;whiteSpace=wrap;html=1;boundedLbl=1;backgroundOutline=1;size=15;" vertex="1" parent="IMZCJYsMuuAbVvXx1TJ9-1">
          <mxGeometry x="965" y="663" width="70" height="60" as="geometry" />
        </mxCell>
        <mxCell id="IMZCJYsMuuAbVvXx1TJ9-30" value="shard2-2" style="shape=cylinder3;whiteSpace=wrap;html=1;boundedLbl=1;backgroundOutline=1;size=15;" vertex="1" parent="IMZCJYsMuuAbVvXx1TJ9-1">
          <mxGeometry x="915" y="743" width="70" height="60" as="geometry" />
        </mxCell>
        <mxCell id="IMZCJYsMuuAbVvXx1TJ9-31" value="" style="endArrow=classic;startArrow=classic;html=1;rounded=0;exitX=0.855;exitY=1;exitDx=0;exitDy=-4.35;exitPerimeter=0;" edge="1" parent="IMZCJYsMuuAbVvXx1TJ9-1" source="IMZCJYsMuuAbVvXx1TJ9-20" target="IMZCJYsMuuAbVvXx1TJ9-30">
          <mxGeometry width="50" height="50" relative="1" as="geometry">
            <mxPoint x="935" y="673" as="sourcePoint" />
            <mxPoint x="985" y="623" as="targetPoint" />
          </mxGeometry>
        </mxCell>
        <mxCell id="IMZCJYsMuuAbVvXx1TJ9-32" value="" style="endArrow=classic;startArrow=classic;html=1;rounded=0;entryX=1;entryY=0;entryDx=0;entryDy=23.25;entryPerimeter=0;exitX=0;exitY=0.5;exitDx=0;exitDy=0;exitPerimeter=0;" edge="1" parent="IMZCJYsMuuAbVvXx1TJ9-1" source="IMZCJYsMuuAbVvXx1TJ9-29" target="IMZCJYsMuuAbVvXx1TJ9-20">
          <mxGeometry width="50" height="50" relative="1" as="geometry">
            <mxPoint x="935" y="673" as="sourcePoint" />
            <mxPoint x="985" y="623" as="targetPoint" />
          </mxGeometry>
        </mxCell>
        <mxCell id="IMZCJYsMuuAbVvXx1TJ9-33" value="" style="endArrow=classic;startArrow=classic;html=1;rounded=0;exitX=1;exitY=0;exitDx=0;exitDy=22.5;exitPerimeter=0;entryX=0.5;entryY=1;entryDx=0;entryDy=0;entryPerimeter=0;" edge="1" parent="IMZCJYsMuuAbVvXx1TJ9-1" source="IMZCJYsMuuAbVvXx1TJ9-30" target="IMZCJYsMuuAbVvXx1TJ9-29">
          <mxGeometry width="50" height="50" relative="1" as="geometry">
            <mxPoint x="935" y="673" as="sourcePoint" />
            <mxPoint x="985" y="623" as="targetPoint" />
          </mxGeometry>
        </mxCell>
        <mxCell id="IMZCJYsMuuAbVvXx1TJ9-34" value="" style="rounded=0;whiteSpace=wrap;html=1;" vertex="1" parent="IMZCJYsMuuAbVvXx1TJ9-1">
          <mxGeometry x="440" y="20" width="360" height="240" as="geometry" />
        </mxCell>
        <mxCell id="IMZCJYsMuuAbVvXx1TJ9-35" value="Кластер Redis" style="text;html=1;align=center;verticalAlign=middle;whiteSpace=wrap;rounded=0;" vertex="1" parent="IMZCJYsMuuAbVvXx1TJ9-1">
          <mxGeometry x="710" y="20" width="90" height="30" as="geometry" />
        </mxCell>
        <mxCell id="IMZCJYsMuuAbVvXx1TJ9-36" value="redis_1" style="shape=cylinder3;whiteSpace=wrap;html=1;boundedLbl=1;backgroundOutline=1;size=15;" vertex="1" parent="IMZCJYsMuuAbVvXx1TJ9-1">
          <mxGeometry x="480" y="40" width="60" height="50" as="geometry" />
        </mxCell>
        <mxCell id="IMZCJYsMuuAbVvXx1TJ9-37" value="redis_2" style="shape=cylinder3;whiteSpace=wrap;html=1;boundedLbl=1;backgroundOutline=1;size=15;" vertex="1" parent="IMZCJYsMuuAbVvXx1TJ9-1">
          <mxGeometry x="620" y="40" width="60" height="50" as="geometry" />
        </mxCell>
        <mxCell id="IMZCJYsMuuAbVvXx1TJ9-38" value="redis_3" style="shape=cylinder3;whiteSpace=wrap;html=1;boundedLbl=1;backgroundOutline=1;size=15;" vertex="1" parent="IMZCJYsMuuAbVvXx1TJ9-1">
          <mxGeometry x="480" y="120" width="60" height="50" as="geometry" />
        </mxCell>
        <mxCell id="IMZCJYsMuuAbVvXx1TJ9-39" value="redis_4" style="shape=cylinder3;whiteSpace=wrap;html=1;boundedLbl=1;backgroundOutline=1;size=15;" vertex="1" parent="IMZCJYsMuuAbVvXx1TJ9-1">
          <mxGeometry x="620" y="120" width="60" height="50" as="geometry" />
        </mxCell>
        <mxCell id="IMZCJYsMuuAbVvXx1TJ9-40" value="redis_5" style="shape=cylinder3;whiteSpace=wrap;html=1;boundedLbl=1;backgroundOutline=1;size=15;" vertex="1" parent="IMZCJYsMuuAbVvXx1TJ9-1">
          <mxGeometry x="480" y="190" width="60" height="50" as="geometry" />
        </mxCell>
        <mxCell id="IMZCJYsMuuAbVvXx1TJ9-41" value="redis_6" style="shape=cylinder3;whiteSpace=wrap;html=1;boundedLbl=1;backgroundOutline=1;size=15;" vertex="1" parent="IMZCJYsMuuAbVvXx1TJ9-1">
          <mxGeometry x="620" y="190" width="60" height="50" as="geometry" />
        </mxCell>
        <mxCell id="IMZCJYsMuuAbVvXx1TJ9-42" value="" style="endArrow=classic;startArrow=classic;html=1;rounded=0;entryX=0;entryY=0;entryDx=0;entryDy=30;entryPerimeter=0;exitX=1;exitY=0.5;exitDx=0;exitDy=0;exitPerimeter=0;" edge="1" parent="IMZCJYsMuuAbVvXx1TJ9-1" source="IMZCJYsMuuAbVvXx1TJ9-36" target="IMZCJYsMuuAbVvXx1TJ9-37">
          <mxGeometry width="50" height="50" relative="1" as="geometry">
            <mxPoint x="670" y="310" as="sourcePoint" />
            <mxPoint x="730" y="290" as="targetPoint" />
          </mxGeometry>
        </mxCell>
        <mxCell id="IMZCJYsMuuAbVvXx1TJ9-43" value="" style="endArrow=classic;startArrow=classic;html=1;rounded=0;exitX=1;exitY=0.5;exitDx=0;exitDy=0;exitPerimeter=0;" edge="1" parent="IMZCJYsMuuAbVvXx1TJ9-1" source="IMZCJYsMuuAbVvXx1TJ9-36">
          <mxGeometry width="50" height="50" relative="1" as="geometry">
            <mxPoint x="670" y="310" as="sourcePoint" />
            <mxPoint x="620" y="150" as="targetPoint" />
          </mxGeometry>
        </mxCell>
        <mxCell id="IMZCJYsMuuAbVvXx1TJ9-44" value="" style="endArrow=classic;startArrow=classic;html=1;rounded=0;entryX=1;entryY=0;entryDx=0;entryDy=30;entryPerimeter=0;exitX=0;exitY=0.5;exitDx=0;exitDy=0;exitPerimeter=0;" edge="1" parent="IMZCJYsMuuAbVvXx1TJ9-1" source="IMZCJYsMuuAbVvXx1TJ9-41" target="IMZCJYsMuuAbVvXx1TJ9-36">
          <mxGeometry width="50" height="50" relative="1" as="geometry">
            <mxPoint x="670" y="310" as="sourcePoint" />
            <mxPoint x="720" y="260" as="targetPoint" />
          </mxGeometry>
        </mxCell>
        <mxCell id="IMZCJYsMuuAbVvXx1TJ9-45" value="" style="endArrow=classic;startArrow=classic;html=1;rounded=0;exitX=1;exitY=0.5;exitDx=0;exitDy=0;exitPerimeter=0;" edge="1" parent="IMZCJYsMuuAbVvXx1TJ9-1" source="IMZCJYsMuuAbVvXx1TJ9-38">
          <mxGeometry width="50" height="50" relative="1" as="geometry">
            <mxPoint x="670" y="310" as="sourcePoint" />
            <mxPoint x="620" y="70" as="targetPoint" />
          </mxGeometry>
        </mxCell>
        <mxCell id="IMZCJYsMuuAbVvXx1TJ9-46" value="" style="endArrow=classic;startArrow=classic;html=1;rounded=0;entryX=0;entryY=0;entryDx=0;entryDy=30;entryPerimeter=0;exitX=1;exitY=0;exitDx=0;exitDy=20;exitPerimeter=0;" edge="1" parent="IMZCJYsMuuAbVvXx1TJ9-1" source="IMZCJYsMuuAbVvXx1TJ9-38" target="IMZCJYsMuuAbVvXx1TJ9-39">
          <mxGeometry width="50" height="50" relative="1" as="geometry">
            <mxPoint x="620" y="320" as="sourcePoint" />
            <mxPoint x="720" y="260" as="targetPoint" />
          </mxGeometry>
        </mxCell>
        <mxCell id="IMZCJYsMuuAbVvXx1TJ9-47" value="" style="endArrow=classic;startArrow=classic;html=1;rounded=0;entryX=0;entryY=0;entryDx=0;entryDy=30;entryPerimeter=0;exitX=1;exitY=0.5;exitDx=0;exitDy=0;exitPerimeter=0;" edge="1" parent="IMZCJYsMuuAbVvXx1TJ9-1" source="IMZCJYsMuuAbVvXx1TJ9-38" target="IMZCJYsMuuAbVvXx1TJ9-41">
          <mxGeometry width="50" height="50" relative="1" as="geometry">
            <mxPoint x="670" y="310" as="sourcePoint" />
            <mxPoint x="720" y="260" as="targetPoint" />
          </mxGeometry>
        </mxCell>
        <mxCell id="IMZCJYsMuuAbVvXx1TJ9-48" value="" style="endArrow=classic;startArrow=classic;html=1;rounded=0;exitX=1;exitY=0;exitDx=0;exitDy=20;exitPerimeter=0;entryX=0;entryY=1;entryDx=0;entryDy=-15;entryPerimeter=0;" edge="1" parent="IMZCJYsMuuAbVvXx1TJ9-1" source="IMZCJYsMuuAbVvXx1TJ9-40" target="IMZCJYsMuuAbVvXx1TJ9-37">
          <mxGeometry width="50" height="50" relative="1" as="geometry">
            <mxPoint x="670" y="310" as="sourcePoint" />
            <mxPoint x="720" y="260" as="targetPoint" />
          </mxGeometry>
        </mxCell>
        <mxCell id="IMZCJYsMuuAbVvXx1TJ9-49" value="" style="endArrow=classic;startArrow=classic;html=1;rounded=0;exitX=1;exitY=0;exitDx=0;exitDy=15;exitPerimeter=0;" edge="1" parent="IMZCJYsMuuAbVvXx1TJ9-1" source="IMZCJYsMuuAbVvXx1TJ9-40">
          <mxGeometry width="50" height="50" relative="1" as="geometry">
            <mxPoint x="670" y="310" as="sourcePoint" />
            <mxPoint x="620" y="150" as="targetPoint" />
          </mxGeometry>
        </mxCell>
        <mxCell id="IMZCJYsMuuAbVvXx1TJ9-50" value="" style="endArrow=classic;startArrow=classic;html=1;rounded=0;entryX=0;entryY=0.5;entryDx=0;entryDy=0;entryPerimeter=0;exitX=1;exitY=0;exitDx=0;exitDy=15;exitPerimeter=0;" edge="1" parent="IMZCJYsMuuAbVvXx1TJ9-1" source="IMZCJYsMuuAbVvXx1TJ9-40" target="IMZCJYsMuuAbVvXx1TJ9-41">
          <mxGeometry width="50" height="50" relative="1" as="geometry">
            <mxPoint x="670" y="310" as="sourcePoint" />
            <mxPoint x="720" y="260" as="targetPoint" />
          </mxGeometry>
        </mxCell>
        <mxCell id="IMZCJYsMuuAbVvXx1TJ9-51" value="" style="endArrow=classic;startArrow=classic;html=1;rounded=0;exitX=1;exitY=0;exitDx=0;exitDy=0;entryX=0.336;entryY=1.003;entryDx=0;entryDy=0;entryPerimeter=0;" edge="1" parent="IMZCJYsMuuAbVvXx1TJ9-1" source="IMZCJYsMuuAbVvXx1TJ9-4" target="IMZCJYsMuuAbVvXx1TJ9-34">
          <mxGeometry width="50" height="50" relative="1" as="geometry">
            <mxPoint x="360" y="320" as="sourcePoint" />
            <mxPoint x="410" y="270" as="targetPoint" />
          </mxGeometry>
        </mxCell>
        <mxCell id="mzEkAY8Ox55EWPAxAkCo-3" value="" style="endArrow=classic;html=1;rounded=0;entryX=0.899;entryY=0.998;entryDx=0;entryDy=0;entryPerimeter=0;" edge="1" parent="IMZCJYsMuuAbVvXx1TJ9-1" target="IMZCJYsMuuAbVvXx1TJ9-2">
          <mxGeometry width="50" height="50" relative="1" as="geometry">
            <mxPoint x="1120" y="724.5714460100446" as="sourcePoint" />
            <mxPoint x="900" y="330" as="targetPoint" />
          </mxGeometry>
        </mxCell>
        <mxCell id="mzEkAY8Ox55EWPAxAkCo-5" value="" style="endArrow=classic;html=1;rounded=0;entryX=0.999;entryY=0.55;entryDx=0;entryDy=0;entryPerimeter=0;" edge="1" parent="IMZCJYsMuuAbVvXx1TJ9-1" target="IMZCJYsMuuAbVvXx1TJ9-18">
          <mxGeometry width="50" height="50" relative="1" as="geometry">
            <mxPoint x="1120" y="720" as="sourcePoint" />
            <mxPoint x="1010" y="730" as="targetPoint" />
          </mxGeometry>
        </mxCell>
        <mxCell id="mzEkAY8Ox55EWPAxAkCo-6" value="" style="endArrow=classic;html=1;rounded=0;entryX=1.009;entryY=0.447;entryDx=0;entryDy=0;entryPerimeter=0;" edge="1" parent="IMZCJYsMuuAbVvXx1TJ9-1" target="IMZCJYsMuuAbVvXx1TJ9-14">
          <mxGeometry width="50" height="50" relative="1" as="geometry">
            <mxPoint x="1120" y="480" as="sourcePoint" />
            <mxPoint x="970" y="550" as="targetPoint" />
          </mxGeometry>
        </mxCell>
        <mxCell id="mzEkAY8Ox55EWPAxAkCo-7" value="pymongo-api" style="rounded=1;whiteSpace=wrap;html=1;" vertex="1" parent="IMZCJYsMuuAbVvXx1TJ9-1">
          <mxGeometry x="420" y="570" width="120" height="60" as="geometry" />
        </mxCell>
        <mxCell id="mzEkAY8Ox55EWPAxAkCo-8" style="edgeStyle=orthogonalEdgeStyle;rounded=0;orthogonalLoop=1;jettySize=auto;html=1;entryX=0;entryY=0;entryDx=0;entryDy=52.5;entryPerimeter=0;" edge="1" parent="IMZCJYsMuuAbVvXx1TJ9-1" source="mzEkAY8Ox55EWPAxAkCo-7" target="IMZCJYsMuuAbVvXx1TJ9-3">
          <mxGeometry relative="1" as="geometry" />
        </mxCell>
        <mxCell id="mzEkAY8Ox55EWPAxAkCo-12" style="edgeStyle=orthogonalEdgeStyle;rounded=0;orthogonalLoop=1;jettySize=auto;html=1;entryX=0;entryY=0.5;entryDx=0;entryDy=0;" edge="1" parent="IMZCJYsMuuAbVvXx1TJ9-1" source="mzEkAY8Ox55EWPAxAkCo-10" target="IMZCJYsMuuAbVvXx1TJ9-4">
          <mxGeometry relative="1" as="geometry" />
        </mxCell>
        <mxCell id="mzEkAY8Ox55EWPAxAkCo-13" style="edgeStyle=orthogonalEdgeStyle;rounded=0;orthogonalLoop=1;jettySize=auto;html=1;entryX=0;entryY=0.5;entryDx=0;entryDy=0;" edge="1" parent="IMZCJYsMuuAbVvXx1TJ9-1" source="mzEkAY8Ox55EWPAxAkCo-10" target="mzEkAY8Ox55EWPAxAkCo-7">
          <mxGeometry relative="1" as="geometry" />
        </mxCell>
        <mxCell id="mzEkAY8Ox55EWPAxAkCo-10" value="APISIX Gateway" style="rounded=1;whiteSpace=wrap;html=1;rotation=90;" vertex="1" parent="IMZCJYsMuuAbVvXx1TJ9-1">
          <mxGeometry x="105" y="495" width="210" height="60" as="geometry" />
        </mxCell>
        <mxCell id="mzEkAY8Ox55EWPAxAkCo-11" value="consul_kv" style="rounded=1;whiteSpace=wrap;html=1;rotation=90;" vertex="1" parent="IMZCJYsMuuAbVvXx1TJ9-1">
          <mxGeometry x="180" y="610" width="70" height="50" as="geometry" />
        </mxCell>
        <mxCell id="mzEkAY8Ox55EWPAxAkCo-14" value="Consul" style="rounded=1;whiteSpace=wrap;html=1;" vertex="1" parent="IMZCJYsMuuAbVvXx1TJ9-1">
          <mxGeometry x="270" y="710" width="120" height="60" as="geometry" />
        </mxCell>
        <mxCell id="mzEkAY8Ox55EWPAxAkCo-16" value="" style="endArrow=classic;startArrow=classic;html=1;rounded=0;exitX=0;exitY=0;exitDx=0;exitDy=0;entryX=0.75;entryY=0;entryDx=0;entryDy=0;" edge="1" parent="IMZCJYsMuuAbVvXx1TJ9-1" source="mzEkAY8Ox55EWPAxAkCo-14" target="mzEkAY8Ox55EWPAxAkCo-11">
          <mxGeometry width="50" height="50" relative="1" as="geometry">
            <mxPoint x="310" y="620" as="sourcePoint" />
            <mxPoint x="360" y="570" as="targetPoint" />
          </mxGeometry>
        </mxCell>
        <mxCell id="mzEkAY8Ox55EWPAxAkCo-17" value="" style="endArrow=classic;startArrow=classic;html=1;rounded=0;exitX=1;exitY=0.75;exitDx=0;exitDy=0;entryX=0.675;entryY=1.092;entryDx=0;entryDy=0;entryPerimeter=0;" edge="1" parent="IMZCJYsMuuAbVvXx1TJ9-1" source="mzEkAY8Ox55EWPAxAkCo-14" target="mzEkAY8Ox55EWPAxAkCo-7">
          <mxGeometry width="50" height="50" relative="1" as="geometry">
            <mxPoint x="310" y="620" as="sourcePoint" />
            <mxPoint x="360" y="570" as="targetPoint" />
          </mxGeometry>
        </mxCell>
        <mxCell id="mzEkAY8Ox55EWPAxAkCo-18" value="" style="endArrow=classic;startArrow=classic;html=1;rounded=0;entryX=0;entryY=1;entryDx=0;entryDy=0;exitX=0.433;exitY=0.025;exitDx=0;exitDy=0;exitPerimeter=0;" edge="1" parent="IMZCJYsMuuAbVvXx1TJ9-1" source="mzEkAY8Ox55EWPAxAkCo-14" target="IMZCJYsMuuAbVvXx1TJ9-4">
          <mxGeometry width="50" height="50" relative="1" as="geometry">
            <mxPoint x="310" y="620" as="sourcePoint" />
            <mxPoint x="360" y="570" as="targetPoint" />
          </mxGeometry>
        </mxCell>
        <mxCell id="mzEkAY8Ox55EWPAxAkCo-20" value="" style="edgeStyle=orthogonalEdgeStyle;rounded=0;orthogonalLoop=1;jettySize=auto;html=1;" edge="1" parent="IMZCJYsMuuAbVvXx1TJ9-1" source="mzEkAY8Ox55EWPAxAkCo-19" target="mzEkAY8Ox55EWPAxAkCo-10">
          <mxGeometry relative="1" as="geometry" />
        </mxCell>
        <mxCell id="mzEkAY8Ox55EWPAxAkCo-19" value="Client" style="shape=umlActor;verticalLabelPosition=bottom;verticalAlign=top;html=1;outlineConnect=0;" vertex="1" parent="IMZCJYsMuuAbVvXx1TJ9-1">
          <mxGeometry x="60" y="490" width="30" height="60" as="geometry" />
        </mxCell>
        <mxCell id="VA7BL8O4d2ElKzTKOlBw-0" value="MongoDB Роутер2" style="shape=cylinder3;whiteSpace=wrap;html=1;boundedLbl=1;backgroundOutline=1;size=15;" vertex="1" parent="IMZCJYsMuuAbVvXx1TJ9-1">
          <mxGeometry x="630" y="530" width="110" height="80" as="geometry" />
        </mxCell>
      </root>
    </mxGraphModel>
  </diagram>
</mxfile>
